<?xml version="1.0" encoding="utf-8"?>
<!-- Generator: Adobe Illustrator 24.0.1, SVG Export Plug-In . SVG Version: 6.00 Build 0)  -->
<svg version="1.1" id="Layer_1" xmlns="http://www.w3.org/2000/svg" xmlns:xlink="http://www.w3.org/1999/xlink" x="0px" y="0px"
	 viewBox="0 0 2000 845.51" enable-background="new 0 0 2000 845.51" xml:space="preserve">
<g>
	<g>
		<path d="M976.17,287.58c-20.09-0.31-40.36,6.27-54.72,20.71c-3.92,3.94-6.41,8.62-9.84,12.87c-2.71,3.36-5.12,0.9-6.45-2.04
			c-1.65-3.69-3.18-7.23-5.52-10.56c-9.86-14.07-27.8-22-44.53-23.6c-36.55-3.49-75.04,20.44-84.22,56.37
			c-5.14,20.1-6,42.42,0.03,62.42c15.39,51.02,84.88,61.96,127.85,42.82c9.56-4.26,18.61-10.02,25.44-17.94
			c9.35-10.85,13.76-25,14.36-39.15c0.5-11.79-2.07-26.32,9.19-34.07c6.65-4.57,15.98-4.85,22.89-0.69
			c6.91,4.16,11.03,12.54,10.11,20.55c-0.63,5.43-3.68,10.78-8.6,13.15c-4.04,1.94-9.01,1.83-12.55,4.56
			c-4.61,3.56-4.91,10.28-4.81,16.11c0.09,4.97,0.18,9.94,0.27,14.91c0.14,7.77,0.61,15.61,0.32,23.39
			c-0.03,0.87-0.08,2.18,0.64,2.82c0.77,0.69,2.62,0.67,3.63,0.99c1.32,0.42,2.59,0.98,3.78,1.67c4.64,2.68,8.16,7.39,9.28,12.64
			c2.21,10.43-2.92,20.26-11.65,26.19c-7.34,4.98-16.43,6.87-25.3,6.89c-9.31,0.02-20.62-0.9-29.14-4.82
			c-3.53-1.62-6.9-3.63-9.57-6.51c-0.47-0.51-2.92-4.72-4.27-7.44c-0.71-1.41-2.16-2.29-3.74-2.29h-67.3
			c-1.37,0,3.3,24.19,4.01,26.42c2.57,8.16,6.55,15.84,11.92,22.5c11.74,14.57,29.96,26.39,48.15,30.8
			c17.98,4.36,36.83,4.18,55.2,3.55c18.28-0.62,36.8-3.03,53.75-10.26c38.58-16.45,62.71-64.8,41.85-104.1
			c-3.49-6.58-8.64-12.42-14.97-16.4c-3.33-2.09-7-3.69-10.85-4.52c-1.85-0.4-9.35-0.36-9.86-2.77
			c19.76-8.25,40.28-20.65,47.25-42.38c7.74-24.13,1.82-55.06-16.48-72.97C1017.27,293.28,995.9,287.88,976.17,287.58z
			 M873.08,391.13c-4.84,5.45-11.07,8.13-18.68,8.13c-7.96,0-14.18-2.68-18.94-8.13c-4.67-5.45-7.01-12.37-7.01-20.84
			c0-8.56,2.33-15.39,7.01-20.67c4.75-5.27,10.98-7.96,18.94-7.96c7.61,0,13.84,2.68,18.68,8.13c4.84,5.45,7.26,12.28,7.26,20.5
			C880.34,378.76,877.92,385.68,873.08,391.13z"/>
		<path d="M1274.66,316.37c-0.83-1.75-1.82-3.46-2.73-5.13c-0.89-1.69-1.68-3.47-2.7-5.16c-0.97-1.74-2.43-3.13-3.81-4.48
			c-1.42-1.33-2.92-2.59-4.49-3.74c-6.29-4.65-13.67-7.66-21.27-9.35c-15.21-3.24-31.5-2.31-46.04,3.72
			c-7.16,2.95-14.35,7.19-18.9,13.9c-3.3,4.61-5.27,9.94-6.36,15.42c-0.73-2.77-1.53-5.54-2.48-8.26
			c-1.73-4.92-3.79-9.81-6.86-14.23c-3.02-4.46-7.46-8.12-12.48-10.18c-5.01-2.11-10.38-2.95-15.66-3.14l0.13,0.01
			c-5.99-0.21-11.36-0.13-17.08-0.16l-4.22,0c-1.2-0.06-3.44,0.02-4.98,0.95c-3.34,1.92-4.52,5.26-5.32,8.08
			c-0.77,2.92-1.07,5.83-1.31,8.67c-0.18,2.86-0.47,5.49-0.82,8.34l-1.95,16.78l-0.98,8.39c-0.19,2.71-1.11,5.68,0.1,9.25
			c0.63,1.8,2.1,3.26,3.66,4.07c1.58,0.81,3.23,1.17,4.86,1.25c3.31,0.03,5.87-0.56,8.58-0.62c2.63-0.11,5.09,0.23,7.06,1.48
			c2.04,1.25,3.35,3.14,4.06,5.57c1.4,4.8,0.83,10.68,0.97,16.22c-0.07,5.54-0.52,11.07-1.39,16.54c-0.38,2.73-1.11,5.4-1.37,8.49
			c-0.12,1.52-0.1,3.14,0.3,4.79c0.37,1.58,1.26,3.43,2.88,4.6c3.4,2.16,6.7,1.5,9.47,1.36c2.69-0.3,5.52-0.22,8.33-0.32l16.85-0.38
			c5.54-0.35,10.97,0.69,16.86,0.67c2.91-0.03,5.96-0.23,8.97-1.45c3.37-1.41,5.2-4.7,5.85-7.74c0.67-3.07,0.52-6.07,0.35-8.89
			l-0.43-8.43c-0.29-5.63-0.81-11.25-0.46-16.67c0.19-2.71,0.63-5.38,1.45-7.91c0.84-2.51,1.97-4.97,3.73-6.66
			c3.44-3.66,9.43-3.51,13.56-0.44c2.13,1.47,3.82,3.47,4.87,5.8c1.07,2.35,1.51,5.03,1.72,7.73c0.4,5.42-0.32,11.1-0.17,16.8
			l0.29,67.59l0.09,33.8c0.1,5.57-0.52,11.14-2.62,16.23c-2.06,5.05-5.59,9.58-10.21,12.48c-4.62,2.93-10.23,4-15.73,3.77
			c-5.49-0.2-10.96-1.97-15.12-5.56c-4.18-3.55-7.11-8.49-8.6-13.79c-1.6-5.34-1.61-10.93-1.56-16.58l-0.03-33.79l0.02-4.22l0-0.53
			c-0.04,0.05,0.22-0.29-0.56-0.72c-0.41-0.05-0.27-0.02-0.43-0.03l-1.06-0.01l-2.11-0.01l-8.45-0.03l-16.9-0.06
			c-11.25-0.07-22.55-0.04-33.75-0.36c-1.32-0.11-3.08-0.23-4.61,0.66c-1.67,0.92-2.18,2.85-2.4,4.2c-0.51,2.82-0.8,5.67-0.97,8.51
			c-0.27,5.71-0.23,11.29-0.13,16.98c0.32,11.38,2.5,22.68,6.32,33.41c3.82,10.71,9.37,20.91,16.87,29.59
			c3.79,4.28,7.98,8.27,12.71,11.56c4.72,3.35,10,5.83,15.41,7.71c10.92,3.69,22.12,5.29,33.37,6.89
			c11.34,1.33,22.88,0.95,34.11-1.12c11.25-2.12,22.09-5.77,32.39-10.67c10.23-4.94,20-11.46,27.28-20.46
			c7.29-8.97,11.58-19.87,14.21-30.88c5.27-22.25,3.53-45.04,4.33-67.48c0.51-22.5,0.88-45.14-2.06-67.53
			C1283.13,346.19,1281.48,330.48,1274.66,316.37z"/>
		<path d="M1471.21,292.51c-16.81-8.24-35.76-11.98-54.45-10.72c-18.7,1.12-37.06,7.38-52.69,17.83
			c-7.79,5.25-14.97,11.45-21.15,18.57c-6.28,7.04-11.27,15.44-14.11,24.54c-2.9,9.09-3.85,18.64-3.93,28.02
			c-0.07,4.7,0.17,9.4,0.17,13.95c-0.02,4.6-0.1,9.23-0.26,13.86c-0.85,18.47-1.39,37.19-1.37,55.79
			c0.04,9.33,0.37,18.69,1.23,28.04c0.94,9.32,2.39,18.74,5.48,27.81c3.06,9.02,7.6,17.71,14.06,24.94
			c6.42,7.29,14.68,12.71,23.38,16.54c8.73,3.85,17.89,6.39,27.07,8.24c9.18,1.85,18.44,3.26,27.74,4.22
			c18.6,1.97,37.42,2.01,55.98-0.12c4.64-0.56,9.26-1.21,13.86-2.04c2.34-0.51,4.48-0.64,7.02-1.52c1.27-0.5,2.4-1.52,3.03-2.72
			c0.64-1.19,0.92-2.45,1.06-3.68c0.9-9.28,1.58-18.56,1.72-27.88c0.09-4.67,0-9.3,0.03-13.95c-0.05-4.64-0.22-9.38-1.6-13.91
			c-1.3-4.49-4.44-8.74-8.96-10.41c-4.43-1.76-9.23-1.75-13.85-1.69l-55.01,0.72c-4.59,0.03-9.16,0.17-13.52-0.96
			c-4.34-1.04-8.36-3.33-11.05-6.81c-2.76-3.43-4.13-7.81-5.15-12.17c-0.88-3.95-1.31-8.01-1.66-12.1l12.56,0.16l13.89,0.71
			c9.32,0.44,18.7,0.35,28.07-0.54c9.34-0.95,18.73-2.7,27.62-6.15c8.92-3.29,17.24-8.45,24.17-15.01
			c13.93-13.15,22.42-31.42,24.51-50.22c2.23-18.88-2.72-38.25-12.76-54.08C1502.4,313.82,1488,300.81,1471.21,292.51z
			 M1460.65,365.54c0.2,4.16-0.54,8.44-2.24,12.07c-1.7,3.67-4.57,6.66-7.9,8.95c-6.84,4.56-15.42,5.78-23.91,5.75
			c-8.8,0.1-17.59,0.24-26.39,0.94c-2.14,0.13-4.54,0.35-6.46,0.42c-1.72-0.03-3.4-1.53-3.53-3.46c-0.29-4.38-0.36-8.79-0.41-13.19
			c-0.13-8.74,2.84-17.67,8.84-23.61c5.94-6.08,13.81-9.24,22.22-10.2c8.37-1.02,17.37-0.76,25.23,2.91
			C1453.89,349.65,1460.31,357.07,1460.65,365.54z"/>
		<path d="M1755.37,355.19c-3.27-11.89-8.25-23.42-15.47-33.53c-7.17-10.13-16.62-18.66-27.36-24.94
			c-21.47-12.73-47.52-16.95-72.11-13.07c-12.32,1.92-24.34,6-35.22,12.15c-2.72,1.54-5.39,3.17-7.9,5.04
			c-2.58,1.77-5.05,3.72-7.38,5.8c-4.69,4.15-8.9,8.83-12.58,13.88c-7.34,10.13-12.5,21.76-15.4,33.86
			c-2.97,12.16-3.17,24.67-3.03,36.95c0.73,24.57-0.71,49.15,0.17,73.79c0.45,12.31,1.58,24.63,4.27,36.71
			c2.87,11.99,8.06,23.68,16.46,32.94c8.42,9.29,19.82,15.26,31.5,19.18c11.77,3.94,23.94,6.15,36.12,8.06
			c24.39,3.63,49.33,4.3,73.87,0.97c3.07-0.38,6.12-0.93,9.17-1.43c1.47-0.26,3.5-0.62,4.97-2.18c1.4-1.49,1.92-3.33,2.17-5
			c0.72-6.21,1.33-12.29,1.77-18.47c0.45-6.15,0.65-12.39,0.6-18.53c0.02-6.08,0.39-12.44-1.32-18.8c-0.83-3.16-2.39-6.31-4.87-8.75
			c-2.5-2.49-5.83-3.83-9.03-4.46c-6.53-1.19-12.63-0.53-18.77-0.57l-36.9,0.58l-9.23,0.14c-3.11,0.03-6.13,0.18-9.02-0.06
			c-5.82-0.39-11.46-2.38-15.01-6.72c-3.55-4.28-5.09-10.24-6.14-16.1c-1.01-5.92-1.33-12.04-2-18.22
			c-1.37-12.13-1.7-24.36-1.68-36.62l0.22-18.41c0.16-6.11,0.39-12.19,1.41-18.1c1.01-5.9,2.8-11.66,5.82-16.73
			c2.94-4.95,7.85-8.59,13.39-10.37c5.55-1.82,11.67-1.91,17.36-0.46c5.68,1.39,10.71,4.94,14.5,9.47
			c3.83,4.56,6.38,10.12,7.71,15.98c1.31,5.9,1.8,12.01,1.97,18.12c0.29,12.24-0.76,24.51-1.12,36.82
			c-0.01,0.77-0.07,1.53,0.02,2.38c0.08,0.78,0.43,1.84,1.32,2.29c1.59,0.78,3.16,0.79,4.71,0.89c3.11,0.09,6.19-0.11,9.26-0.34
			c3.07-0.32,6.09-0.34,9.18-0.33l9.22-0.06l18.45-0.09l9.22-0.04c2.99-0.16,6.32,0.54,9.11-1.24c2.77-1.81,3.51-5.26,3.77-8.25
			c0.21-3.09,0.16-6.16,0.18-9.24c0-6.15-0.17-12.31-0.57-18.45C1760.38,379.35,1758.61,367.1,1755.37,355.19z"/>
		<path d="M1999.93,486.17c-0.12-13.15-0.44-26.34-1.32-39.46c-0.8-13.13-1.78-26.23-2.09-39.35l-0.08-4.94l-0.35-4.93l-0.68-9.84
			c-0.48-6.56-1.07-13.12-1.97-19.64c-1.79-13.02-4.97-26-10.92-37.79c-6.06-11.7-15.05-21.91-26.09-29.16
			c-11.06-7.21-23.58-11.99-36.42-14.91c-6.43-1.49-12.98-2.45-19.57-2.87c-6.59-0.54-13.22-0.36-19.81,0.17
			c-6.6,0.53-13.13,1.81-19.55,3.46c-6.4,1.78-12.61,4.21-18.57,7.2c-11.9,6.18-21.78,16.01-28.49,27.57
			c-6.8,11.54-10.89,24.42-13.41,37.43c-4.77,26.12-4.89,52.64-4.65,78.92c0.35,26.29,1.18,52.57,1.75,78.86l0.48,19.71l0.24,9.86
			c0.05,1.63,0.04,3.3,0.31,5.03c0.16,0.86,0.4,1.79,1.03,2.61c0.64,0.82,1.63,1.26,2.51,1.45c1.79,0.38,3.48,0.17,5.1,0.13
			l4.92-0.17l9.84-0.18c6.56-0.03,13.13-0.01,19.68,0.31c6.61,0.34,13.04,0.37,19.63,1.41c3.63,0.33,7.09-2.48,7.7-6.03
			c0.28-3.49,0.06-6.63,0.11-9.96l-0.15-39.44c0.13-26.29-0.67-52.6-1.61-78.87c-0.38-13.12-0.84-26.3-0.81-39.36
			c0.12-6.51,0.58-13.03,2.18-19.25c1.52-6.22,4.37-12.09,8.64-16.71c4.3-4.57,10.01-7.86,16.14-8.99c6.1-1.19,12.6-0.04,17.56,3.61
			c5.09,3.56,8.43,9.09,9.93,15.19c1.57,6.12,1.72,12.63,1.66,19.14c-0.46,52.6,0.58,105.18-1.06,157.67l-0.25,9.84
			c-0.02,1.66-0.12,3.23-0.11,5.03c0.06,1.79,0.22,3.77,1.42,5.72c1.25,1.97,3.32,2.98,5.12,3.45c1.84,0.51,3.62,0.61,5.35,0.66
			c3.4,0.03,6.74-0.13,10.06-0.47c3.3-0.32,6.52-0.7,9.7-0.8l9.82-0.14l19.7-0.3c1.7-0.05,3.14,0,5.1-0.16
			c1.86-0.2,3.77-0.79,5.4-1.91c3.33-2.27,4.83-6.01,5.55-9.37c0.74-3.46,0.7-6.87,0.83-10.11l0.27-9.87
			C2000,512.49,2000.07,499.33,1999.93,486.17z"/>
	</g>
	<g>
		<g>
			<path d="M625.79,383.77c-12.7,108.5-83.96,203.9-141.24,280.59L367.67,820.83c-8.7,11.66-20.4,24.68-35.24,24.68
				c-1.07,0-2.18-0.07-3.28-0.21c-14.69-1.89-24-16.69-25.32-29.68c-0.07-0.78-0.14-1.57-0.18-2.35
				C293.13,674.95,438,599.41,465.57,586.32c7.81-6.17,15.34-12.45,21.43-18.83c65.38-68.59,93.8-154.11,89.99-234.65
				c-2.96-62.81-30.07-124.62-74.4-169.59c-44.12-44.73-105.47-72.94-168.42-77.4l-1.86-0.14c-8.88-0.61-18.05-1.21-25.93-6.13
				c-0.36-0.25-0.71-0.46-1.03-0.71c-4.92-3.46-8.49-8.95-9.56-14.66c-0.96-5.32,0.89-9.56,2.53-13.27
				c0.25-0.61,0.53-1.25,0.82-1.85c4.74-11.38,20.65-11.91,27.25-11.63C411.82,41.16,496,81.57,551.67,145.52
				c21.36,24.54,38.73,52.61,51.61,83.35C624.04,278.45,631.81,332.02,625.79,383.77z"/>
			<path d="M273.61,86.96c0,3.91-1.34,7.7-3.85,10.68l-0.57,0.57l-4.18,3.31c-7.28,5.73-14.53,11.48-21.74,17.24l-9.75,7.75
				c-5.91,4.68-11.75,9.46-17.63,14.23c-8.32,6.77-16.91,13.75-25.59,20.46v0.03c-11.1,9.63-24.22,15.15-36.99,15.51
				c-2.71,0.09-5.43-0.06-8.02-0.21c-2.21-0.15-4.44-0.3-6.62-0.24c-17.6,0.21-32.78,10.11-45.16,29.47
				c-7.9,12.38-14.82,25.53-20.58,39.13c-13.69,32.36-20.61,66.75-20.61,102.19s6.92,69.8,20.61,102.19
				c4.41,10.44,9.54,20.67,15.24,30.39c4.41,7.52,9.22,14.88,14.35,21.89c27.26,40.09,58.37,77.7,92.59,111.88
				c11.01,11.04,22.52,21.86,34.18,32.18l12.17,10.74l-0.36-0.09c2.65,2.27,5.31,4.5,7.99,6.68l1.82,1.52
				c7.61,6.68,11.9,16.17,11.9,26.13c0,1.88-0.15,3.79-0.45,5.61l-0.45,2.6l-0.45,0.09c-3.25,12.2-16.55,24.94-33.11,26.13
				c-0.84,0.06-1.67,0.09-2.51,0.09c-11.22,0-22.04-5.34-29.44-14.56c-4.71-5.91-8.53-10.2-12.35-13.93
				c-2.27-2.21-4.53-4.44-6.77-6.68c-35.08-35.08-66.93-73.7-94.67-114.75c-14.35-21.21-27.77-43.43-39.94-65.98
				c-5.52-10.2-10.89-20.76-15.99-31.35c-0.72-1.61-1.37-3.13-2-4.62C8.32,434.52,0,393.38,0,351c0-11.99,0.69-24.04,2-35.79
				l2.51-15.75c4-24.19,10.86-47.87,20.49-70.6c12.32-29.11,28.87-56.08,49.22-80.15c0.89-1.07,1.82-2.15,2.77-3.22l1.07-1.37
				c0.75-0.9,1.43-1.79,2.12-2.71c4.74-6.5,7.49-13.27,8.59-21.33c0.3-2.03,0.51-4.06,0.75-6.12c0.54-4.92,1.1-9.99,2.48-14.97
				c3.58-13.09,12.56-24.94,25.26-33.32l0.09,0.12c8.71-6.68,17.12-13.33,24.31-19.03l55.87-44.29c3.31-2.03,7.13-2.83,11.04-2.3
				c7.28,0.98,13.12,6.71,14.23,13.93c0.72,4.47-0.39,8.89-3.01,12.53l-0.72,0.72l-5.25,4.18c-1.37,1.31-2.86,2.42-4.3,3.49
				c-0.66,0.48-1.31,0.95-1.94,1.46l-23.36,18.52c-3.19,2.53-6.32,5.13-9.46,7.75c-5.61,4.68-11.42,9.52-17.54,13.87
				c-2.71,1.91-3.67,3.28-3.67,5.16c0,1.02,0.33,2,0.89,2.83c1.07,1.43,2.54,2.18,4.12,2.18c1.43,0,2.42-0.75,4.3-2.3l9.72-7.61
				c5.7-4.45,11.36-8.89,17.06-13.33c11.04-8.68,22.07-17.36,33.11-26.1l4.83-3.76c6.05-3.04,13.9-1.94,18.91,2.77l0.39,0.42
				l2.68,3.43c1.25,2.18,2.03,4.65,2.18,7.19l0.03,0.39c0.03,0.27,0.03,0.51,0.03,0.78c0,3.91-1.37,7.7-3.88,10.68l-0.54,0.57
				l-11.69,9.28c-5.91,4.65-11.72,9.46-17.57,14.23c-10.5,8.62-21.36,17.51-32.45,25.65c-2.92,2.15-3.94,3.61-3.94,5.58
				c0,0.72,0.12,1.4,0.39,2.03c1.16,2.51,2.51,2.83,2.95,2.92c1.97,0.48,4.86-0.51,7.4-2.51c17.36-13.78,34.72-27.59,52.08-41.37
				l2.37-1.82c2.85-2.18,6.28-3.66,9.87-3.67c0.03,0,0.05,0,0.08,0c8.05,0,14.97,5.73,16.47,13.63l0.06,0.39
				C273.55,85.14,273.61,86.04,273.61,86.96z"/>
			<path d="M314.39,166.37c-100.58,0-182.1,81.55-182.1,182.1c0,106.26,110.18,208.66,159.13,248.92c13.33,10.96,32.6,10.96,45.93,0
				c48.95-40.25,159.13-142.66,159.13-248.92C496.49,247.92,414.94,166.37,314.39,166.37z M314.39,453.11
				c-62.73,0-113.58-50.86-113.58-113.58c0-62.73,50.86-113.58,113.58-113.58s113.58,50.86,113.58,113.58
				C427.97,402.25,377.11,453.11,314.39,453.11z"/>
		</g>
	</g>
</g>
</svg>
