<?xml version="1.0" encoding="utf-8"?>
<!-- Generator: Adobe Illustrator 24.0.1, SVG Export Plug-In . SVG Version: 6.00 Build 0)  -->
<svg version="1.1" id="Layer_1" xmlns="http://www.w3.org/2000/svg" xmlns:xlink="http://www.w3.org/1999/xlink" x="0px" y="0px"
	 viewBox="0 0 2000 708.51" enable-background="new 0 0 2000 708.51" xml:space="preserve">
<g>
	<g>
		<g>
			<g>
				<path d="M816.3,290.4c0,1.21-1.1,1.82-3.31,1.82c-8.26,0-20.78-0.72-37.57-2.15c-16.8-1.43-29.38-2.15-37.74-2.15
					c-10.57,0-16.74,0.39-18.49,1.16c-4.08,1.87-6.11,7.16-6.11,15.86c0,10.46,2.64,16.41,7.92,17.83c2.2,0.56,5.56,0.83,10.08,0.83
					c7.6,0,18.97-0.41,34.11-1.24c15.14-0.83,26.51-1.24,34.11-1.24c3.64,0,5.45,9.69,5.45,29.06c0,16.85-0.6,26.65-1.81,29.4
					c-0.78,1.98-2.26,2.97-4.47,2.97c1.43,0-2.04-0.38-10.4-1.16c-11.78-1.1-29.62-1.65-53.52-1.65c-7.71,0-12.06,0.06-13.04,0.17
					c-5.62,0.88-8.42,3.25-8.42,7.1c0,15.64,0.66,33.64,1.98,54.01c1.1,18.39,1.65,26.59,1.65,24.61c0,2.86-3.47,4.51-10.41,4.95
					c1.88-0.11-3.02-0.17-14.7-0.17c-20.6,0-33.86-0.72-39.81-2.15c-3.2-0.77-4.78-2.48-4.78-5.12c0-12.22,0.41-30.58,1.24-55.09
					c0.83-24.5,1.24-42.86,1.24-55.08c0-14.54-0.66-32.81-1.98-54.84c-1.99-34.02-3.03-52.3-3.14-54.84l-0.17-1.99
					c-0.11-2.75,1.54-4.13,4.96-4.13c8.15,0,20.45,0.17,36.91,0.49c16.46,0.33,28.82,0.5,37.08,0.5c8.81,0,22.05-0.67,39.72-1.99
					c17.67-1.32,30.92-1.98,39.72-1.98c5.5,0,8.59,2.26,9.25,6.77c0,4.73,0.22,11.84,0.66,21.31c0.22,2.42,0.94,7.1,2.15,14.04
					C815.75,282.41,816.3,287.09,816.3,290.4"/>
				<path d="M1073.32,352.67c0,34.35-10.96,63.14-32.87,86.38c-22.36,23.56-50.65,35.34-84.89,35.34
					c-34.03,0-62.27-11.89-84.73-35.68c-22.02-23.23-33.04-51.91-33.04-86.05c0-34.25,11.01-63.04,33.04-86.38
					c22.46-23.89,50.7-35.84,84.73-35.84c33.8,0,61.99,11.95,84.56,35.84C1062.25,289.85,1073.32,318.64,1073.32,352.67
					 M1010.73,352.33c0-16.51-5.01-30.56-15.03-42.12c-10.46-12.11-23.84-18.17-40.13-18.17c-15.53,0-28.69,6.28-39.48,18.83
					c-10.46,12.11-15.69,26.05-15.69,41.79c0,16.84,4.9,30.88,14.7,42.11c10.35,11.79,23.84,17.67,40.47,17.67
					c15.52,0,28.74-6.22,39.63-18.67C1005.55,381.9,1010.73,368.08,1010.73,352.33"/>
				<path d="M1335.47,352.67c0,34.35-10.96,63.14-32.87,86.38c-22.36,23.56-50.65,35.34-84.89,35.34
					c-34.03,0-62.27-11.89-84.73-35.68c-22.02-23.23-33.04-51.91-33.04-86.05c0-34.25,11.01-63.04,33.04-86.38
					c22.46-23.89,50.7-35.84,84.73-35.84c33.8,0,61.99,11.95,84.56,35.84C1324.4,289.85,1335.47,318.64,1335.47,352.67
					 M1272.87,352.33c0-16.51-5.01-30.56-15.03-42.12c-10.46-12.11-23.84-18.17-40.13-18.17c-15.53,0-28.69,6.28-39.48,18.83
					c-10.46,12.11-15.69,26.05-15.69,41.79c0,16.84,4.9,30.88,14.7,42.11c10.35,11.79,23.84,17.67,40.47,17.67
					c15.52,0,28.74-6.22,39.63-18.67C1267.69,381.9,1272.87,368.08,1272.87,352.33"/>
				<path d="M1583.73,351.18c0,32.37-10.41,60.45-31.22,84.23c-18.39,21.26-44.21,32.43-77.46,33.53
					c-6.39,0.22-23.95,0.33-52.69,0.33c-5.4,0-13.52-0.17-24.36-0.5c-10.85-0.33-18.97-0.49-24.36-0.49c-3.2,0-4.79-1.26-4.79-3.8
					c0-12.11,0.47-30.31,1.4-54.59c0.94-24.28,1.41-42.47,1.41-54.59c0-12.66-0.47-31.63-1.41-56.9c-0.94-25.27-1.4-44.18-1.4-56.73
					c0-2.31,1.59-3.69,4.79-4.13c7.82-0.88,20.65-1.32,38.48-1.32c33.91,0,55.89,0.49,65.9,1.49c26.09,2.65,46.52,9.25,61.27,19.82
					c13.88,9.91,24.83,23.79,32.87,41.62C1579.88,316,1583.73,333.34,1583.73,351.18 M1520.48,351.18c0-18.61-5.56-33.8-16.68-45.58
					c-11.23-12.22-26.1-18.33-44.6-18.33c-16.96,0-25.43,2.26-25.43,6.77c0,6.5-0.11,16.27-0.33,29.32
					c-0.22,13.05-0.33,22.82-0.33,29.31c0,6.39,0.11,16,0.33,28.82c0.22,12.83,0.33,22.49,0.33,28.99c0,4.73,8.81,7.1,26.42,7.1
					c19.05,0,34.03-6.33,44.93-18.99C1515.36,386.58,1520.48,370.78,1520.48,351.18"/>
				<path d="M1769.24,471.09c-9.47,0-21.8-0.22-37-0.66c-19.81-0.44-32.15-0.72-36.99-0.83l-49.38-0.66
					c-4.95,0.11-12.06-0.12-21.31-0.66c-3.2-0.55-4.79-2.26-4.79-5.12c0-12,0.19-29.97,0.58-53.93c0.38-23.95,0.58-41.92,0.58-53.93
					c0-12.77-0.39-31.9-1.16-57.39c-0.77-25.5-1.15-44.62-1.15-57.4c0-2.42,1.65-3.63,4.95-3.63c3.31,0,8.23,0.17,14.78,0.49
					c6.55,0.33,11.42,0.49,14.62,0.49c3.63,0,9.03-0.19,16.19-0.58c7.16-0.38,12.55-0.58,16.18-0.58c1.65,0,2.42,1.04,2.31,3.14
					l-0.17,2.15c-1.32,20.7-2.81,51.81-4.46,93.32l-0.16,43.61c0,14.09,0.05,24.39,0.16,30.88c0.11,1.33,0.22,2.65,0.33,3.97
					c0.11,1.33,0.94,2.15,2.48,2.48h4.29c9.91,0,24.75-0.52,44.51-1.57c19.76-1.04,34.61-1.57,44.52-1.57c2.97,0,4.46,1.27,4.46,3.8
					c0,18.83-1.38,35.07-4.12,48.72c-0.56,2.86-1.71,4.57-3.47,5.12C1775.46,470.98,1773.2,471.09,1769.24,471.09"/>
				<path d="M2000,296.51c0,4.73-0.88,8.87-2.64,12.39c-14.43,28.52-34.09,58.53-58.97,90.02c-3.52,4.62-5.28,8.81-5.28,12.55
					c0,5.84,0.33,14.59,0.99,26.26c0.66,11.68,0.99,20.38,0.99,26.1c0,1.98-0.44,3.2-1.32,3.63c-0.22,0.11-1.71,0.39-4.46,0.83
					c-3.97,0.66-13.88,0.99-29.73,0.99c-15.96,0-26.16-0.33-30.56-0.99c-3.08-0.44-4.63-2.04-4.63-4.79c0-5.84,0.5-14.73,1.49-26.67
					c0.99-11.95,1.49-20.9,1.49-26.84c0-3.52-1.33-7.32-3.97-11.4c-13.32-18.83-32.37-47.68-57.14-86.55
					c-2.54-4.3-3.8-7.82-3.8-10.57c0-6.61-0.33-16.52-0.99-29.73c-0.66-13.22-0.99-23.13-0.99-29.73c0-3.64,1.1-5.45,3.31-5.45
					c6.71,0,16.9,0.28,30.56,0.83c13.65,0.55,23.89,0.83,30.72,0.83c2.54,0,3.8,0.83,3.8,2.47c0,5.62-0.24,14.07-0.74,25.35
					c-0.49,11.29-0.74,19.74-0.74,25.36c0,3.3,4.84,11.56,14.53,24.77c7.71,10.35,14.04,18.33,18.99,23.95
					c4.52-5.28,10.52-13.22,18.01-23.79c9.47-13.22,14.2-21.2,14.2-23.95c0-5.5-0.41-13.84-1.24-25.02
					c-0.83-11.17-1.24-19.51-1.24-25.02c0-2.31,0.5-3.63,1.49-3.97h4.13c6.6,0,16.54-0.3,29.81-0.9
					c13.27-0.61,23.26-0.91,29.97-0.91c2.2,0,3.31,2.37,3.31,7.1c0,5.84,0.11,14.61,0.33,26.34
					C1999.89,281.73,2000,290.56,2000,296.51"/>
			</g>
		</g>
	</g>
	<g>
		<path d="M524.39,321.59c-10.64,90.92-70.35,170.87-118.35,235.12L308.1,687.83c-7.29,9.77-17.09,20.68-29.53,20.68
			c-0.9,0-1.82-0.06-2.75-0.18c-12.31-1.58-20.11-13.99-21.22-24.87c-0.06-0.66-0.12-1.31-0.15-1.97
			c-8.81-115.9,112.59-179.2,135.69-190.17c6.55-5.17,12.85-10.43,17.96-15.78c54.78-57.47,78.6-129.14,75.41-196.63
			c-2.48-52.63-25.2-104.43-62.35-142.11c-36.97-37.48-88.38-61.12-141.13-64.86l-1.56-0.12c-7.44-0.51-15.12-1.02-21.73-5.14
			c-0.3-0.21-0.6-0.39-0.87-0.6c-4.12-2.9-7.11-7.5-8.01-12.28c-0.81-4.45,0.75-8.01,2.12-11.12c0.21-0.51,0.45-1.05,0.69-1.55
			c3.98-9.53,17.3-9.98,22.84-9.74c71.58,3.11,142.11,36.97,188.77,90.56c17.9,20.56,32.46,44.08,43.25,69.85
			C522.93,233.33,529.44,278.22,524.39,321.59z"/>
		<path d="M229.28,72.87c0,3.27-1.12,6.45-3.22,8.95l-0.47,0.47l-3.5,2.77c-6.1,4.8-12.17,9.62-18.22,14.45l-8.17,6.5
			c-4.95,3.92-9.85,7.92-14.77,11.92c-6.97,5.67-14.17,11.52-21.45,17.15v0.02c-9.3,8.07-20.3,12.7-30.99,13
			c-2.27,0.07-4.55-0.05-6.72-0.17c-1.85-0.13-3.72-0.25-5.55-0.2c-14.75,0.17-27.47,8.47-37.84,24.69
			c-6.62,10.37-12.42,21.4-17.25,32.79c-11.47,27.12-17.27,55.94-17.27,85.63s5.8,58.49,17.27,85.63c3.7,8.75,8,17.32,12.77,25.47
			c3.7,6.3,7.72,12.47,12.02,18.35c22.85,33.59,48.92,65.11,77.58,93.76c9.22,9.25,18.87,18.32,28.64,26.97l10.2,9l-0.3-0.07
			c2.22,1.9,4.45,3.77,6.7,5.6l1.52,1.28c6.37,5.6,9.97,13.55,9.97,21.9c0,1.57-0.13,3.17-0.37,4.7l-0.37,2.17l-0.37,0.08
			c-2.72,10.22-13.87,20.9-27.74,21.9c-0.7,0.05-1.4,0.08-2.1,0.08c-9.4,0-18.47-4.47-24.67-12.2c-3.95-4.95-7.15-8.55-10.35-11.67
			c-1.9-1.85-3.8-3.72-5.67-5.6c-29.39-29.39-56.09-61.76-79.33-96.16c-12.02-17.77-23.27-36.39-33.47-55.29
			c-4.62-8.55-9.12-17.4-13.4-26.27c-0.6-1.35-1.15-2.63-1.67-3.87C6.97,364.11,0,329.64,0,294.13c0-10.05,0.57-20.15,1.67-29.99
			l2.1-13.2c3.35-20.27,9.1-40.12,17.17-59.16c10.32-24.4,24.2-46.99,41.24-67.16c0.75-0.9,1.52-1.8,2.32-2.7l0.9-1.15
			c0.62-0.75,1.2-1.5,1.77-2.27c3.97-5.45,6.27-11.12,7.2-17.87c0.25-1.7,0.43-3.4,0.62-5.12c0.45-4.12,0.92-8.37,2.07-12.55
			c3-10.97,10.52-20.9,21.17-27.92l0.08,0.1c7.3-5.6,14.35-11.17,20.37-15.95l46.82-37.12c2.77-1.7,5.97-2.37,9.25-1.92
			c6.1,0.83,11,5.62,11.92,11.67c0.6,3.75-0.32,7.45-2.52,10.5l-0.6,0.6l-4.4,3.5c-1.15,1.1-2.4,2.02-3.6,2.92
			c-0.55,0.4-1.1,0.8-1.62,1.23l-19.57,15.52c-2.67,2.12-5.3,4.3-7.92,6.5c-4.7,3.92-9.57,7.97-14.7,11.62
			c-2.27,1.6-3.07,2.75-3.07,4.32c0,0.85,0.27,1.68,0.75,2.38c0.9,1.2,2.12,1.82,3.45,1.82c1.2,0,2.02-0.62,3.6-1.92l8.15-6.37
			c4.77-3.72,9.52-7.45,14.3-11.17c9.25-7.27,18.5-14.55,27.74-21.87l4.05-3.15c5.07-2.55,11.65-1.62,15.85,2.32l0.32,0.35
			l2.25,2.87c1.05,1.82,1.7,3.9,1.82,6.02l0.03,0.32c0.03,0.23,0.03,0.43,0.03,0.65c0,3.27-1.15,6.45-3.25,8.95l-0.45,0.47
			l-9.8,7.77c-4.95,3.9-9.82,7.92-14.72,11.92c-8.8,7.22-17.9,14.67-27.19,21.5c-2.45,1.8-3.3,3.02-3.3,4.67
			c0,0.6,0.1,1.17,0.32,1.7c0.97,2.1,2.1,2.38,2.47,2.45c1.65,0.4,4.07-0.42,6.2-2.1c14.55-11.55,29.09-23.12,43.64-34.67l1.98-1.52
			c2.39-1.83,5.26-3.06,8.27-3.08c0.02,0,0.04,0,0.07,0c6.75,0,12.55,4.8,13.8,11.42l0.05,0.32
			C229.23,71.35,229.28,72.1,229.28,72.87z"/>
		<path d="M263.45,139.42c-84.28,0-152.59,68.34-152.59,152.59c0,89.04,92.33,174.85,133.35,208.59c11.17,9.19,27.32,9.19,38.49,0
			c41.02-33.73,133.35-119.54,133.35-208.59C416.04,207.75,347.71,139.42,263.45,139.42z M263.45,379.69
			c-52.56,0-95.18-42.62-95.18-95.18c0-52.56,42.62-95.18,95.18-95.18s95.18,42.62,95.18,95.18
			C358.63,337.08,316.01,379.69,263.45,379.69z"/>
	</g>
</g>
</svg>
