<?xml version="1.0" encoding="utf-8"?>
<!-- Generator: Adobe Illustrator 24.0.1, SVG Export Plug-In . SVG Version: 6.00 Build 0)  -->
<svg version="1.1" id="Layer_1" xmlns="http://www.w3.org/2000/svg" xmlns:xlink="http://www.w3.org/1999/xlink" x="0px" y="0px"
	 viewBox="0 0 2000 460.71" enable-background="new 0 0 2000 460.71" xml:space="preserve">
<g>
	<path fill="#F33F00" d="M339.69,10.22c-32.58-0.51-65.46,10.18-88.74,33.59c-6.36,6.39-10.39,13.98-15.95,20.87
		c-4.4,5.45-8.31,1.46-10.45-3.31c-2.68-5.98-5.16-11.72-8.95-17.13c-15.99-22.83-45.08-35.68-72.23-38.27
		C84.09,0.3,21.67,39.11,6.78,97.38c-8.33,32.6-9.73,68.8,0.06,101.24c24.97,82.74,137.65,100.49,207.35,69.45
		c15.5-6.9,30.18-16.25,41.26-29.1c15.17-17.59,22.32-40.55,23.29-63.48c0.81-19.13-3.36-42.69,14.91-55.25
		c10.78-7.41,25.92-7.87,37.13-1.12s17.89,20.33,16.39,33.33c-1.02,8.81-5.96,17.48-13.95,21.33c-6.55,3.15-14.61,2.96-20.36,7.4
		c-7.48,5.77-7.97,16.67-7.8,26.12c0.15,8.06,0.29,16.12,0.44,24.18c0.23,12.61,0.99,25.33,0.51,37.93
		c-0.05,1.41-0.14,3.54,1.04,4.58c1.25,1.11,4.25,1.08,5.89,1.6c2.14,0.68,4.19,1.59,6.13,2.71c7.53,4.35,13.24,11.98,15.05,20.5
		c3.59,16.92-4.74,32.86-18.9,42.47c-11.91,8.08-26.65,11.15-41.04,11.18c-15.1,0.03-33.44-1.46-47.27-7.81
		c-5.73-2.63-11.19-5.89-15.52-10.56c-0.76-0.82-4.73-7.66-6.93-12.07c-1.15-2.29-3.5-3.72-6.06-3.72H89.25
		c-2.23,0,5.35,39.23,6.5,42.84c4.18,13.22,10.63,25.68,19.34,36.49c19.04,23.64,48.58,42.81,78.09,49.96
		c29.16,7.06,59.74,6.77,89.53,5.76c29.64-1.01,59.68-4.92,87.16-16.64c62.57-26.68,101.7-105.09,67.87-168.83
		c-5.67-10.68-14.01-20.14-24.29-26.59c-5.4-3.39-11.36-5.99-17.6-7.34c-3.01-0.65-15.16-0.58-15.98-4.5
		c32.05-13.38,65.33-33.5,76.63-68.73c12.56-39.13,2.96-89.3-26.73-118.34C406.36,19.46,371.7,10.71,339.69,10.22z M172.49,178.16
		c-7.86,8.83-17.96,13.18-30.3,13.18c-12.9,0-23-4.35-30.71-13.18c-7.57-8.84-11.36-20.06-11.36-33.8
		c0-13.89,3.79-24.97,11.36-33.52c7.71-8.55,17.81-12.9,30.71-12.9c12.34,0,22.44,4.35,30.3,13.18
		c7.85,8.83,11.78,19.91,11.78,33.24C184.27,158.1,180.35,169.32,172.49,178.16z"/>
	<path fill="#F33F00" d="M590.58,6.9c0.06,0,0.13,0.01,0.19,0.01c0.01,0,0.01,0,0.02,0L590.58,6.9z"/>
	<path fill="#F33F00" d="M823.8,56.57c-1.34-2.83-2.95-5.61-4.44-8.31c-1.45-2.75-2.72-5.63-4.38-8.37
		c-1.58-2.81-3.94-5.08-6.18-7.27c-2.31-2.16-4.73-4.2-7.28-6.07c-10.2-7.54-22.18-12.42-34.5-15.17
		c-24.67-5.25-51.09-3.75-74.66,6.03c-11.6,4.78-23.27,11.67-30.66,22.55c-5.34,7.47-8.55,16.12-10.32,25.01
		c-1.19-4.5-2.49-8.98-4.02-13.4c-2.81-7.98-6.15-15.91-11.13-23.08c-4.91-7.23-12.1-13.16-20.24-16.51
		c-8.07-3.39-16.71-4.76-25.21-5.07c-9.7-0.34-18.42-0.21-27.68-0.26l-6.85-0.01c-1.95-0.09-5.57,0.03-8.08,1.55
		c-5.41,3.11-7.34,8.54-8.63,13.1c-1.25,4.74-1.74,9.45-2.13,14.06c-0.29,4.64-0.76,8.9-1.33,13.53l-3.17,27.22l-1.59,13.61
		c-0.25,2.29-0.56,4.47-0.75,6.96c-0.16,2.46-0.13,5.25,0.91,8.04c1.03,2.91,3.41,5.29,5.94,6.6c2.56,1.31,5.24,1.89,7.88,2.02
		c5.37,0.05,9.53-0.91,13.92-1c4.27-0.18,8.25,0.37,11.44,2.39c3.3,2.03,5.43,5.09,6.58,9.03c2.28,7.79,1.35,17.32,1.58,26.31
		c-0.12,8.98-0.84,17.96-2.25,26.83c-0.62,4.43-1.8,8.76-2.22,13.76c-0.19,2.47-0.16,5.1,0.49,7.78c0.6,2.56,2.04,5.56,4.67,7.47
		c2.62,1.8,5.54,2.35,8.08,2.48c2.57,0.13,4.98-0.08,7.28-0.28c4.37-0.48,8.96-0.35,13.51-0.52l27.33-0.62
		c8.99-0.57,17.79,1.11,27.35,1.08c4.72-0.04,9.67-0.37,14.54-2.35c5.47-2.29,8.44-7.63,9.48-12.56c1.08-4.97,0.84-9.84,0.57-14.41
		l-0.69-13.68c-0.47-9.13-1.31-18.25-0.75-27.03c0.31-4.39,1.02-8.72,2.34-12.82c1.36-4.08,3.2-8.07,6.05-10.8
		c5.57-5.94,15.3-5.69,21.99-0.71c3.46,2.39,6.19,5.62,7.89,9.41c1.74,3.81,2.45,8.16,2.79,12.54c0.64,8.8-0.52,18-0.28,27.24
		l0.48,109.62l0.15,54.81c0.17,9.04-0.84,18.07-4.25,26.32c-3.35,8.19-9.07,15.54-16.55,20.24c-7.49,4.75-16.6,6.48-25.51,6.11
		c-8.9-0.33-17.77-3.2-24.52-9.01c-6.77-5.76-11.54-13.76-13.95-22.37c-2.6-8.66-2.61-17.73-2.54-26.89l-0.05-54.81l0.02-6.85
		l0-0.85c-0.07,0.08,0.35-0.48-0.91-1.16c-0.66-0.08-0.43-0.03-0.69-0.05l-1.72-0.02l-3.43-0.02l-13.7-0.04l-27.4-0.09
		c-18.25-0.12-36.58-0.07-54.74-0.58c-2.14-0.17-4.99-0.37-7.48,1.06c-2.71,1.49-3.53,4.63-3.89,6.81
		c-0.82,4.57-1.31,9.19-1.57,13.79c-0.44,9.26-0.38,18.3-0.21,27.53c0.52,18.45,4.07,36.77,10.19,54.2
		c6.17,17.4,15.13,33.96,27.28,48.08c6.15,6.97,12.92,13.48,20.63,18.81c7.68,5.44,16.27,9.45,25.06,12.48
		c17.74,5.96,35.91,8.51,54.16,11.07c18.4,2.1,37.11,1.5,55.33-1.86c18.24-3.44,35.82-9.36,52.53-17.3
		c16.59-8.01,32.44-18.59,44.24-33.18c11.82-14.55,18.78-32.23,23.05-50.08c4.26-17.95,5.7-36.34,6.25-54.63l0.77-54.82
		c0.82-36.5,1.42-73.21-3.34-109.52C837.52,104.94,834.85,79.45,823.8,56.57z"/>
	<path fill="#F33F00" d="M1142.56,17.79c-27.25-13.37-57.99-19.43-88.3-17.39c-30.32,1.82-60.11,11.97-85.45,28.91
		c-12.63,8.51-24.28,18.57-34.3,30.11c-10.19,11.42-18.27,25.04-22.88,39.8c-4.71,14.74-6.24,30.23-6.37,45.44
		c-0.11,7.62,0.28,15.24,0.28,22.63c-0.03,7.47-0.17,14.97-0.42,22.47c-0.43,14.94-1.51,30.09-1.63,45.19
		c-0.33,15.06-0.69,30.16-0.59,45.29c0.06,15.13,0.59,30.31,2,45.48c1.53,15.12,3.87,30.4,8.89,45.11
		c4.97,14.63,12.33,28.72,22.81,40.44c10.41,11.83,23.81,20.61,37.92,26.82c14.16,6.25,29.01,10.35,43.91,13.36
		c14.89,3,29.9,5.28,44.99,6.85c30.17,3.19,60.68,3.26,90.79-0.2c7.52-0.91,15.02-1.97,22.47-3.31c3.79-0.83,7.27-1.03,11.38-2.46
		c2.07-0.81,3.9-2.47,4.92-4.41c1.03-1.93,1.49-3.98,1.71-5.97c1.46-15.06,2.57-30.1,2.79-45.21c0.14-7.57,0-15.08,0.04-22.62
		c-0.08-7.53-0.36-15.21-2.59-22.56c-2.11-7.29-7.2-14.17-14.54-16.88c-7.19-2.85-14.97-2.84-22.46-2.74l-89.22,1.17
		c-7.45,0.04-14.85,0.27-21.93-1.55c-7.04-1.69-13.55-5.4-17.93-11.05c-4.48-5.57-6.7-12.66-8.36-19.74
		c-1.43-6.41-2.16-12.99-2.72-19.62l20.39,0.26l22.52,1.15c15.11,0.7,30.34,0.57,45.53-0.88c15.15-1.55,30.38-4.39,44.8-9.97
		c14.47-5.34,27.95-13.7,39.2-24.35c22.59-21.32,36.37-50.95,39.76-81.45c3.61-30.61-4.41-62.03-20.7-87.71
		C1193.14,52.35,1169.78,31.25,1142.56,17.79z M1125.44,136.24c0.32,6.76-0.88,13.68-3.63,19.58c-2.75,5.95-7.41,10.81-12.82,14.51
		c-11.09,7.4-25.01,9.37-38.79,9.32c-14.27,0.16-28.53,0.38-42.8,1.52c-3.47,0.22-7.35,0.57-10.48,0.68
		c-2.79-0.05-5.51-2.48-5.73-5.61c-0.47-7.1-0.59-14.26-0.67-21.39c-0.22-14.17,4.61-28.66,14.33-38.29
		c9.63-9.87,22.39-14.99,36.04-16.55c13.57-1.65,28.16-1.23,40.92,4.72c6.32,2.98,12.09,7.23,16.38,12.69
		C1122.59,122.82,1124.98,129.53,1125.44,136.24z"/>
	<path fill="#F33F00" d="M1603.41,118.28c-5.3-19.27-13.38-37.98-25.09-54.38c-11.64-16.43-26.95-30.27-44.38-40.44
		c-34.82-20.65-77.07-27.49-116.96-21.21c-19.98,3.12-39.47,9.73-57.13,19.7c-4.41,2.5-8.73,5.15-12.82,8.18
		c-4.19,2.87-8.18,6.03-11.98,9.4c-7.6,6.74-14.43,14.32-20.4,22.52c-11.91,16.43-20.27,35.28-24.97,54.91
		c-4.81,19.71-5.14,40.01-4.91,59.93c1.19,39.86-1.15,79.72,0.27,119.68c0.72,19.96,2.56,39.94,6.93,59.53
		c4.65,19.44,13.08,38.41,26.7,53.43c13.66,15.07,32.14,24.74,51.09,31.1c19.08,6.39,38.83,9.97,58.58,13.07
		c39.56,5.88,80.01,6.97,119.81,1.57c4.98-0.61,9.92-1.52,14.88-2.32c2.38-0.43,5.67-1.01,8.06-3.53c2.28-2.42,3.11-5.39,3.52-8.1
		c1.17-10.07,2.16-19.93,2.86-29.96c0.72-9.98,1.05-20.09,0.97-30.06c0.03-9.86,0.63-20.18-2.14-30.49
		c-1.34-5.12-3.88-10.23-7.9-14.19c-4.05-4.03-9.46-6.21-14.65-7.24c-10.58-1.93-20.49-0.86-30.45-0.92l-59.85,0.93l-14.96,0.23
		c-5.04,0.04-9.95,0.29-14.63-0.1c-9.44-0.63-18.58-3.87-24.34-10.89c-5.76-6.94-8.26-16.61-9.95-26.11
		c-1.64-9.6-2.15-19.52-3.24-29.54c-2.23-19.68-2.76-39.51-2.72-59.4l0.35-29.85c0.25-9.91,0.63-19.76,2.29-29.36
		c1.63-9.57,4.54-18.91,9.44-27.13c4.76-8.03,12.73-13.93,21.72-16.83c9-2.95,18.93-3.1,28.16-0.75c9.21,2.26,17.38,8,23.52,15.37
		c6.22,7.39,10.34,16.41,12.51,25.92c2.12,9.56,2.92,19.47,3.19,29.38c0.47,19.86-1.24,39.75-1.81,59.72
		c-0.02,1.25-0.12,2.49,0.04,3.86c0.13,1.27,0.7,3,2.15,3.72c2.57,1.27,5.12,1.28,7.65,1.44c5.05,0.14,10.04-0.18,15.02-0.56
		c4.97-0.52,9.87-0.56,14.9-0.54l14.96-0.1l29.92-0.14l14.96-0.05c4.85-0.27,10.24,0.87,14.77-2.01c4.49-2.92,5.68-8.53,6.11-13.38
		c0.33-5.02,0.26-9.99,0.3-14.98c0-9.98-0.27-19.96-0.92-29.92C1611.54,157.47,1608.67,137.6,1603.41,118.28z"/>
	<path fill="#F33F00" d="M1999.93,336.51c-0.15-21.32-0.6-42.71-2.03-64c-1.3-21.29-2.89-42.54-3.39-63.82l-0.14-8.01l-0.57-8
		l-1.11-15.95c-0.78-10.64-1.73-21.27-3.19-31.85c-2.9-21.11-8.05-42.16-17.71-61.28c-9.83-18.97-24.4-35.54-42.32-47.3
		c-17.94-11.7-38.24-19.44-59.07-24.19c-5.19-1.34-10.5-2.03-15.77-3.01c-5.32-0.57-10.62-1.44-15.98-1.65
		c-10.68-0.87-21.44-0.58-32.13,0.28c-10.71,0.86-21.29,2.94-31.71,5.61c-10.38,2.89-20.45,6.83-30.12,11.68
		c-19.29,10.02-35.32,25.97-46.2,44.71c-11.03,18.71-17.67,39.61-21.76,60.71c-7.73,42.36-7.93,85.38-7.54,127.98
		c0.56,42.63,1.96,85.26,2.75,127.89l0.7,31.97l0.35,15.98c0.07,2.65,0.05,5.36,0.5,8.19c0.26,1.41,0.66,2.94,1.71,4.31
		c1.07,1.38,2.73,2.11,4.18,2.42c2.96,0.61,5.69,0.27,8.32,0.2l7.98-0.29l15.96-0.33c10.64-0.07,21.29-0.06,31.92,0.45
		c10.72,0.54,21.15,0.55,31.84,2.21c5.89,0.54,11.5-4.02,12.49-9.77c0.45-5.67,0.09-10.75,0.18-16.16l-0.24-63.96
		c0.22-42.64-1.09-85.31-2.62-127.9c-0.62-21.28-1.36-42.65-1.32-63.84c0.2-10.55,0.93-21.13,3.54-31.22
		c2.47-10.1,7.08-19.6,14.01-27.1c6.98-7.41,16.23-12.75,26.18-14.58c9.89-1.93,20.43-0.07,28.48,5.85
		c8.26,5.77,13.67,14.74,16.11,24.64c2.54,9.92,2.78,20.48,2.7,31.04c-0.75,85.32,0.93,170.59-1.72,255.72l-0.4,15.97
		c-0.04,2.68-0.19,5.23-0.17,8.16c0.09,2.91,0.36,6.11,2.3,9.28c2.03,3.19,5.39,4.84,8.3,5.6c2.99,0.83,5.87,1,8.67,1.08
		c5.51,0.05,10.93-0.22,16.31-0.77c5.35-0.52,10.58-1.13,15.73-1.29l15.92-0.22l31.95-0.52c2.75-0.09,5.1-0.01,8.27-0.27
		c3.01-0.33,6.1-1.29,8.73-3.1c5.37-3.68,7.8-9.72,8.95-15.16c1.19-5.59,1.12-11.12,1.31-16.38l0.41-16
		C1999.95,379.19,2000.11,357.85,1999.93,336.51z"/>
</g>
</svg>
