<?xml version="1.0" encoding="utf-8"?>
<!-- Generator: Adobe Illustrator 24.0.1, SVG Export Plug-In . SVG Version: 6.00 Build 0)  -->
<svg version="1.1" id="Layer_1" xmlns="http://www.w3.org/2000/svg" xmlns:xlink="http://www.w3.org/1999/xlink" x="0px" y="0px"
	 viewBox="0 0 2000 2085.34" enable-background="new 0 0 2000 2085.34" xml:space="preserve">
<g>
	<g>
		<path fill="#FFFFFF" d="M339.66,1634.88c-32.58-0.5-65.46,10.18-88.74,33.58c-6.36,6.4-10.39,13.98-15.95,20.87
			c-4.4,5.45-8.31,1.46-10.45-3.32c-2.68-5.97-5.16-11.72-8.95-17.13c-15.99-22.83-45.07-35.68-72.22-38.27
			c-59.27-5.65-121.69,33.15-136.58,91.42c-8.33,32.6-9.73,68.79,0.06,101.23c24.96,82.73,137.64,100.48,207.34,69.44
			c15.5-6.9,30.18-16.25,41.26-29.1c15.17-17.59,22.32-40.54,23.29-63.48c0.81-19.12-3.36-42.69,14.91-55.25
			c10.78-7.41,25.92-7.87,37.12-1.12c11.21,6.74,17.89,20.33,16.39,33.33c-1.02,8.81-5.96,17.48-13.95,21.33
			c-6.54,3.15-14.61,2.96-20.36,7.4c-7.47,5.77-7.97,16.67-7.79,26.12c0.14,8.06,0.29,16.12,0.44,24.18
			c0.23,12.61,0.99,25.32,0.51,37.93c-0.05,1.41-0.14,3.54,1.04,4.58c1.25,1.11,4.25,1.08,5.89,1.6c2.13,0.67,4.19,1.59,6.13,2.71
			c7.53,4.35,13.23,11.97,15.04,20.5c3.59,16.92-4.74,32.86-18.89,42.46c-11.9,8.08-26.64,11.15-41.03,11.18
			c-15.1,0.03-33.44-1.45-47.26-7.81c-5.73-2.64-11.19-5.89-15.52-10.56c-0.76-0.82-4.73-7.67-6.93-12.07
			c-1.15-2.29-3.5-3.72-6.06-3.72H89.25c-2.22,0,5.35,39.22,6.5,42.84c4.18,13.23,10.63,25.68,19.34,36.49
			c19.04,23.63,48.58,42.8,78.09,49.95c29.16,7.06,59.73,6.77,89.52,5.75c29.64-1.01,59.68-4.92,87.16-16.63
			c62.57-26.67,101.69-105.08,67.87-168.82c-5.67-10.68-14.02-20.14-24.28-26.59c-5.4-3.39-11.35-5.99-17.6-7.34
			c-3.01-0.65-15.16-0.58-15.99-4.5c32.05-13.38,65.32-33.49,76.62-68.72c12.56-39.13,2.96-89.29-26.73-118.33
			C406.32,1644.12,371.67,1635.37,339.66,1634.88z M172.48,1802.81c-7.85,8.83-17.95,13.18-30.29,13.18c-12.9,0-23-4.35-30.71-13.18
			c-7.58-8.83-11.36-20.06-11.36-33.8c0-13.89,3.78-24.97,11.36-33.52c7.71-8.55,17.81-12.9,30.71-12.9
			c12.34,0,22.44,4.35,30.29,13.18c7.85,8.83,11.78,19.91,11.78,33.24C184.26,1782.75,180.33,1793.97,172.48,1802.81z"/>
		<path fill="#FFFFFF" d="M823.73,1681.23c-1.34-2.84-2.95-5.61-4.43-8.31c-1.45-2.75-2.72-5.63-4.38-8.37
			c-1.58-2.81-3.94-5.08-6.18-7.26c-2.31-2.16-4.73-4.2-7.28-6.07c-10.2-7.53-22.18-12.41-34.5-15.16
			c-24.67-5.25-51.09-3.75-74.66,6.03c-11.6,4.78-23.27,11.66-30.65,22.54c-5.35,7.47-8.55,16.12-10.32,25.01
			c-1.19-4.5-2.48-8.98-4.02-13.4c-2.81-7.98-6.15-15.9-11.13-23.08c-4.91-7.23-12.1-13.16-20.24-16.5
			c-8.13-3.42-16.84-4.79-25.4-5.09l0.21,0.01c-9.71-0.35-18.43-0.21-27.69-0.26l-6.85-0.01c-1.95-0.09-5.57,0.03-8.08,1.55
			c-5.41,3.11-7.34,8.53-8.63,13.1c-1.26,4.74-1.74,9.45-2.13,14.06c-0.3,4.64-0.76,8.9-1.33,13.53l-3.17,27.22l-1.58,13.61
			c-0.31,4.4-1.79,9.22,0.16,15c1.03,2.91,3.41,5.29,5.94,6.6c2.56,1.31,5.24,1.9,7.87,2.02c5.37,0.05,9.53-0.91,13.92-1.01
			c4.27-0.18,8.25,0.37,11.44,2.39c3.3,2.03,5.43,5.09,6.58,9.03c2.28,7.79,1.35,17.32,1.58,26.31c-0.12,8.98-0.84,17.95-2.25,26.82
			c-0.62,4.42-1.8,8.76-2.22,13.76c-0.19,2.47-0.16,5.1,0.49,7.78c0.6,2.56,2.04,5.56,4.67,7.46c5.51,3.5,10.86,2.44,15.35,2.2
			c4.37-0.48,8.96-0.35,13.51-0.52l27.33-0.62c8.98-0.57,17.79,1.11,27.34,1.08c4.72-0.04,9.67-0.37,14.54-2.35
			c5.47-2.29,8.44-7.62,9.48-12.56c1.08-4.97,0.83-9.84,0.57-14.41l-0.7-13.68c-0.47-9.13-1.31-18.25-0.75-27.03
			c0.31-4.39,1.02-8.73,2.35-12.82c1.36-4.08,3.2-8.06,6.04-10.8c5.57-5.94,15.3-5.68,21.99-0.71c3.46,2.39,6.19,5.62,7.89,9.41
			c1.74,3.81,2.45,8.16,2.79,12.54c0.64,8.8-0.52,18-0.28,27.24l0.47,109.61l0.15,54.8c0.17,9.04-0.84,18.06-4.25,26.32
			c-3.35,8.19-9.06,15.53-16.55,20.23c-7.49,4.75-16.6,6.48-25.51,6.11c-8.9-0.33-17.77-3.2-24.52-9.01
			c-6.77-5.76-11.53-13.76-13.95-22.37c-2.6-8.66-2.61-17.73-2.54-26.88l-0.05-54.8l0.03-6.85l0-0.85
			c-0.07,0.08,0.36-0.47-0.91-1.16c-0.66-0.08-0.43-0.03-0.69-0.05l-1.72-0.01l-3.43-0.02l-13.7-0.04l-27.4-0.09
			c-18.25-0.12-36.58-0.07-54.74-0.58c-2.14-0.17-4.99-0.37-7.48,1.07c-2.71,1.49-3.53,4.62-3.89,6.81
			c-0.83,4.58-1.31,9.19-1.57,13.79c-0.44,9.26-0.38,18.3-0.21,27.53c0.51,18.45,4.06,36.78,10.24,54.18
			c6.2,17.38,15.2,33.9,27.37,47.98c6.15,6.95,12.94,13.41,20.62,18.75c7.65,5.44,16.21,9.46,24.99,12.5
			c17.71,5.99,35.87,8.58,54.11,11.17c18.39,2.15,37.1,1.54,55.32-1.81c18.24-3.44,35.82-9.36,52.53-17.3
			c16.59-8.02,32.44-18.59,44.23-33.18c11.82-14.55,18.78-32.23,23.05-50.08c8.54-36.08,5.73-73.04,7.02-109.43
			c0.82-36.49,1.42-73.2-3.34-109.51C837.45,1729.6,834.78,1704.11,823.73,1681.23z"/>
		<path fill="#FFFFFF" d="M1142.47,1642.45c-27.25-13.36-57.99-19.43-88.29-17.39c-30.32,1.82-60.1,11.96-85.44,28.91
			c-12.63,8.51-24.28,18.57-34.3,30.11c-10.19,11.42-18.27,25.03-22.88,39.79c-4.71,14.74-6.24,30.23-6.37,45.44
			c-0.12,7.62,0.28,15.24,0.28,22.62c-0.03,7.47-0.17,14.97-0.42,22.47c-1.37,29.96-2.26,60.32-2.22,90.48
			c0.06,15.13,0.59,30.31,2,45.48c1.53,15.12,3.87,30.39,8.89,45.11c4.97,14.63,12.33,28.72,22.81,40.44
			c10.41,11.82,23.81,20.6,37.92,26.82c14.15,6.25,29.01,10.36,43.9,13.36c14.88,3,29.9,5.28,44.99,6.85
			c30.16,3.19,60.68,3.25,90.78-0.2c7.52-0.91,15.02-1.97,22.47-3.31c3.79-0.83,7.27-1.03,11.39-2.46c2.06-0.8,3.89-2.47,4.92-4.41
			c1.03-1.93,1.49-3.98,1.71-5.97c1.45-15.05,2.57-30.1,2.79-45.21c0.14-7.57,0-15.08,0.04-22.62c-0.08-7.53-0.36-15.21-2.59-22.56
			c-2.11-7.29-7.2-14.17-14.54-16.87c-7.19-2.85-14.97-2.84-22.45-2.74l-89.21,1.17c-7.45,0.04-14.85,0.27-21.93-1.55
			c-7.05-1.69-13.55-5.4-17.93-11.05c-4.48-5.57-6.7-12.66-8.36-19.74c-1.43-6.41-2.13-13-2.7-19.62l20.37,0.26l22.52,1.15
			c15.11,0.71,30.33,0.57,45.53-0.88c15.15-1.54,30.38-4.38,44.79-9.97c14.47-5.34,27.95-13.7,39.2-24.35
			c22.59-21.32,36.37-50.95,39.75-81.45c3.61-30.61-4.41-62.03-20.7-87.71C1193.05,1677.02,1169.68,1655.92,1142.47,1642.45z
			 M1125.35,1760.9c0.32,6.75-0.88,13.68-3.63,19.57c-2.75,5.95-7.41,10.81-12.82,14.51c-11.09,7.4-25.01,9.37-38.78,9.32
			c-14.26,0.17-28.53,0.39-42.79,1.53c-3.47,0.22-7.36,0.57-10.48,0.68c-2.79-0.05-5.51-2.48-5.73-5.61
			c-0.47-7.1-0.59-14.26-0.67-21.38c-0.22-14.17,4.61-28.66,14.33-38.29c9.63-9.87,22.39-14.99,36.04-16.55
			c13.57-1.65,28.16-1.23,40.92,4.72C1114.37,1735.12,1124.79,1747.16,1125.35,1760.9z"/>
		<path fill="#FFFFFF" d="M1603.28,1742.94c-5.29-19.27-13.38-37.98-25.09-54.38c-11.64-16.43-26.95-30.26-44.38-40.44
			c-34.82-20.64-77.06-27.49-116.95-21.2c-19.98,3.11-39.47,9.72-57.12,19.7c-4.41,2.5-8.73,5.15-12.82,8.18
			c-4.18,2.87-8.18,6.02-11.97,9.4c-7.6,6.74-14.44,14.32-20.4,22.52c-11.91,16.43-20.27,35.28-24.97,54.91
			c-4.81,19.71-5.14,40.01-4.91,59.93c1.19,39.85-1.14,79.71,0.27,119.67c0.72,19.96,2.57,39.94,6.93,59.52
			c4.64,19.44,13.07,38.41,26.7,53.43c13.65,15.07,32.14,24.74,51.08,31.1c19.08,6.39,38.83,9.98,58.58,13.07
			c39.56,5.88,80.01,6.97,119.8,1.57c4.98-0.61,9.92-1.51,14.87-2.32c2.37-0.43,5.67-1.01,8.06-3.53c2.28-2.42,3.11-5.39,3.52-8.11
			c1.18-10.07,2.15-19.92,2.86-29.95c0.72-9.98,1.05-20.09,0.98-30.06c0.02-9.86,0.63-20.18-2.14-30.49
			c-1.34-5.12-3.88-10.22-7.9-14.18c-4.05-4.03-9.46-6.21-14.65-7.23c-10.58-1.93-20.49-0.86-30.44-0.92l-59.85,0.94l-14.96,0.23
			c-5.04,0.04-9.94,0.29-14.63-0.1c-9.45-0.63-18.58-3.87-24.34-10.89c-5.76-6.94-8.26-16.61-9.95-26.11
			c-1.63-9.6-2.15-19.52-3.24-29.54c-2.23-19.68-2.76-39.51-2.72-59.39l0.35-29.85c0.25-9.91,0.63-19.76,2.29-29.36
			c1.63-9.57,4.54-18.91,9.45-27.13c4.76-8.02,12.72-13.93,21.72-16.82c9.01-2.95,18.93-3.1,28.16-0.75
			c9.21,2.26,17.38,8,23.52,15.37c6.21,7.38,10.34,16.41,12.51,25.91c2.11,9.56,2.92,19.47,3.19,29.38
			c0.47,19.85-1.24,39.75-1.81,59.72c-0.02,1.24-0.12,2.48,0.03,3.85c0.13,1.27,0.7,2.99,2.15,3.72c2.57,1.27,5.13,1.28,7.65,1.44
			c5.05,0.14,10.04-0.18,15.02-0.56c4.97-0.52,9.87-0.56,14.9-0.54l14.96-0.1l29.91-0.14l14.96-0.06
			c4.85-0.27,10.25,0.87,14.77-2.01c4.49-2.92,5.69-8.53,6.11-13.38c0.33-5.02,0.25-9.98,0.3-14.98c0-9.98-0.27-19.96-0.92-29.92
			C1611.41,1782.13,1608.54,1762.25,1603.28,1742.94z"/>
		<path fill="#FFFFFF" d="M1999.89,1961.15c-0.19-21.32-0.71-42.71-2.15-63.99c-1.3-21.29-2.89-42.53-3.39-63.82l-0.14-8l-0.56-8
			l-1.11-15.95c-0.78-10.63-1.73-21.27-3.2-31.85c-2.9-21.11-8.05-42.15-17.71-61.28c-9.83-18.97-24.41-35.53-42.31-47.29
			c-17.94-11.7-38.24-19.44-59.07-24.18c-10.42-2.42-21.05-3.97-31.74-4.66c-10.69-0.87-21.44-0.58-32.13,0.28
			c-10.71,0.86-21.29,2.94-31.71,5.61c-10.38,2.89-20.45,6.83-30.12,11.68c-19.29,10.02-35.32,25.97-46.19,44.71
			c-11.03,18.72-17.66,39.61-21.75,60.7c-7.73,42.36-7.92,85.37-7.53,127.98c0.57,42.63,1.91,85.26,2.84,127.88l0.77,31.97
			l0.38,15.98c0.08,2.65,0.06,5.35,0.5,8.15c0.26,1.39,0.65,2.9,1.67,4.23c1.04,1.33,2.64,2.04,4.07,2.35
			c2.91,0.61,5.64,0.28,8.27,0.21l7.98-0.28l15.96-0.3c10.64-0.05,21.29-0.02,31.92,0.51c10.72,0.56,21.15,0.59,31.84,2.28
			c5.88,0.54,11.5-4.02,12.49-9.77c0.45-5.66,0.09-10.75,0.17-16.16l-0.24-63.96c0.22-42.63-1.09-85.3-2.62-127.89
			c-0.63-21.28-1.36-42.65-1.32-63.84c0.2-10.56,0.93-21.13,3.54-31.21c2.47-10.1,7.08-19.6,14.01-27.1
			c6.98-7.41,16.23-12.74,26.18-14.58c9.89-1.93,20.43-0.07,28.48,5.86c8.26,5.77,13.67,14.74,16.11,24.64
			c2.54,9.92,2.79,20.48,2.7,31.04c-0.75,85.31,0.93,170.57-1.72,255.69l-0.4,15.96c-0.04,2.68-0.19,5.24-0.17,8.16
			c0.09,2.9,0.36,6.11,2.3,9.28c2.03,3.19,5.39,4.84,8.3,5.6c2.99,0.83,5.87,1,8.68,1.07c5.5,0.05,10.92-0.22,16.31-0.77
			c5.35-0.52,10.58-1.13,15.73-1.29l15.93-0.22l31.94-0.49c2.75-0.08,5.1,0,8.27-0.25c3.01-0.33,6.12-1.29,8.76-3.09
			c5.4-3.69,7.84-9.74,8.99-15.19c1.21-5.6,1.14-11.13,1.35-16.39l0.44-16C2000,2003.83,2000.12,1982.48,1999.89,1961.15z"/>
	</g>
	<g>
		<g>
			<path fill="#FFFFFF" d="M1514.94,634.91c-21,179.5-138.9,337.34-233.66,464.2l-193.36,258.86
				c-14.39,19.29-33.75,40.83-58.3,40.83c-1.77,0-3.6-0.12-5.43-0.35c-24.31-3.13-39.71-27.62-41.89-49.09
				c-0.12-1.3-0.24-2.6-0.3-3.89c-17.4-228.83,222.28-353.8,267.89-375.45c12.92-10.21,25.37-20.59,35.46-31.16
				c108.16-113.47,155.18-254.96,148.87-388.2c-4.9-103.91-49.75-206.17-123.09-280.57c-72.99-73.99-174.48-120.67-278.62-128.04
				l-3.07-0.24c-14.69-1-29.85-2.01-42.89-10.15c-0.59-0.41-1.18-0.77-1.71-1.18c-8.14-5.72-14.04-14.81-15.81-24.25
				c-1.6-8.79,1.48-15.81,4.19-21.95c0.41-1,0.88-2.07,1.35-3.07c7.85-18.82,34.16-19.71,45.08-19.23
				c141.31,6.14,280.57,72.99,372.68,178.79c35.35,40.6,64.08,87.03,85.39,137.9C1512.04,460.66,1524.91,549.29,1514.94,634.91z"/>
			<path fill="#FFFFFF" d="M932.31,143.87c0,6.46-2.22,12.73-6.37,17.67l-0.94,0.94l-6.91,5.48c-12.04,9.47-24.03,19-35.97,28.52
				l-16.14,12.83c-9.77,7.75-19.44,15.64-29.16,23.54c-13.77,11.2-27.98,22.75-42.34,33.85v0.05
				c-18.36,15.94-40.07,25.07-61.19,25.66c-4.49,0.15-8.98-0.1-13.27-0.34c-3.65-0.25-7.35-0.49-10.95-0.4
				c-29.11,0.34-54.23,16.73-74.71,48.75c-13.08,20.48-24.53,42.24-34.05,64.74c-22.65,53.54-34.1,110.44-34.1,169.06
				s11.45,115.47,34.1,169.06c7.3,17.27,15.79,34.2,25.22,50.28c7.3,12.44,15.25,24.62,23.74,36.22
				c45.1,66.32,96.57,128.55,153.17,185.1c18.21,18.26,37.26,36.17,56.55,53.25l20.13,17.77l-0.59-0.15
				c4.39,3.75,8.78,7.45,13.22,11.05l3.01,2.52c12.58,11.05,19.69,26.75,19.69,43.23c0,3.11-0.25,6.27-0.74,9.28l-0.74,4.29
				l-0.74,0.15c-5.38,20.18-27.39,41.25-54.78,43.23c-1.38,0.1-2.76,0.15-4.14,0.15c-18.55,0-36.47-8.83-48.71-24.08
				c-7.8-9.77-14.11-16.88-20.43-23.05c-3.75-3.65-7.5-7.35-11.2-11.05c-58.03-58.03-110.73-121.94-156.63-189.84
				c-23.74-35.09-45.94-71.85-66.08-109.15c-9.13-16.88-18.01-34.35-26.45-51.86c-1.18-2.66-2.27-5.18-3.31-7.65
				c-27.09-64.1-40.86-132.15-40.86-202.27c0-19.84,1.14-39.77,3.31-59.22l4.14-26.05c6.61-40.02,17.96-79.2,33.9-116.8
				c20.38-48.16,47.77-92.77,81.42-132.6c1.48-1.78,3.01-3.55,4.59-5.33l1.78-2.27c1.23-1.48,2.37-2.96,3.5-4.49
				c7.85-10.76,12.39-21.96,14.21-35.28c0.49-3.36,0.84-6.71,1.23-10.12c0.89-8.14,1.83-16.53,4.1-24.77
				c5.92-21.66,20.78-41.26,41.8-55.12l0.15,0.2c14.41-11.05,28.33-22.06,40.22-31.48l92.43-73.28c5.48-3.35,11.79-4.69,18.26-3.8
				c12.04,1.63,21.71,11.1,23.54,23.05c1.18,7.4-0.64,14.7-4.98,20.72l-1.18,1.18l-8.68,6.91c-2.27,2.17-4.74,4-7.11,5.77
				c-1.09,0.79-2.17,1.58-3.21,2.42l-38.64,30.64c-5.28,4.19-10.46,8.49-15.64,12.83c-9.28,7.75-18.9,15.74-29.02,22.95
				c-4.49,3.16-6.07,5.43-6.07,8.53c0,1.68,0.54,3.31,1.48,4.69c1.78,2.37,4.19,3.6,6.81,3.6c2.37,0,4-1.23,7.11-3.8l16.09-12.58
				c9.43-7.35,18.8-14.71,28.23-22.06c18.26-14.36,36.52-28.72,54.78-43.18l7.99-6.22c10.02-5.03,23-3.21,31.29,4.59l0.64,0.69
				l4.44,5.67c2.07,3.6,3.36,7.7,3.6,11.89l0.05,0.64c0.05,0.45,0.05,0.84,0.05,1.28c0,6.46-2.27,12.73-6.42,17.67l-0.89,0.94
				l-19.34,15.35c-9.77,7.7-19.39,15.64-29.07,23.54c-17.37,14.26-35.33,28.97-53.69,42.44c-4.84,3.55-6.51,5.97-6.51,9.23
				c0,1.18,0.2,2.32,0.64,3.35c1.92,4.14,4.15,4.69,4.89,4.84c3.26,0.79,8.04-0.84,12.24-4.14c28.72-22.8,57.44-45.65,86.16-68.44
				l3.92-3c4.71-3.61,10.39-6.05,16.33-6.07c0.04,0,0.09,0,0.13,0c13.32,0,24.77,9.47,27.24,22.55l0.1,0.64
				C932.21,140.86,932.31,142.34,932.31,143.87z"/>
			<path fill="#FFFFFF" d="M999.76,275.24c-166.4,0-301.26,134.91-301.26,301.26c0,175.79,182.28,345.21,263.27,411.81
				c22.06,18.14,53.93,18.14,75.99,0c80.99-66.6,263.27-236.01,263.27-411.81C1301.03,410.16,1166.11,275.24,999.76,275.24z
				 M999.76,749.61c-103.78,0-187.91-84.14-187.91-187.91c0-103.78,84.14-187.91,187.91-187.91s187.91,84.14,187.91,187.91
				C1187.68,665.48,1103.54,749.61,999.76,749.61z"/>
		</g>
	</g>
</g>
</svg>
