<?xml version="1.0" encoding="utf-8"?>
<!-- Generator: Adobe Illustrator 24.0.1, SVG Export Plug-In . SVG Version: 6.00 Build 0)  -->
<svg version="1.1" id="Layer_1" xmlns="http://www.w3.org/2000/svg" xmlns:xlink="http://www.w3.org/1999/xlink" x="0px" y="0px"
	 viewBox="0 0 2000 2693.69" enable-background="new 0 0 2000 2693.69" xml:space="preserve">
<g>
	<path fill="#2727CD" d="M1993.68,1222.65c-40.45,345.66-267.48,649.61-449.97,893.92l-372.37,498.49
		c-27.72,37.15-64.99,78.63-112.26,78.63c-3.41,0-6.94-0.23-10.45-0.68c-46.82-6.03-76.47-53.18-80.67-94.54
		c-0.23-2.5-0.45-5-0.58-7.5c-33.51-440.66,428.05-681.32,515.88-723.02c24.89-19.66,48.86-39.66,68.29-60
		c208.28-218.51,298.84-490.99,286.69-747.56c-9.43-200.1-95.8-397.02-237.03-540.3c-140.56-142.49-336-232.37-536.55-246.58
		l-5.91-0.45c-28.29-1.93-57.49-3.86-82.6-19.54c-1.13-0.8-2.27-1.48-3.3-2.27c-15.68-11.02-27.04-28.52-30.45-46.7
		c-3.07-16.93,2.84-30.45,8.07-42.27c0.79-1.93,1.7-3.98,2.61-5.91c15.11-36.25,65.79-37.95,86.82-37.04
		c272.13,11.82,540.3,140.55,717.67,344.29c68.07,78.18,123.4,167.6,164.43,265.55C1988.11,887.1,2012.89,1057.77,1993.68,1222.65z"
		/>
	<path fill="#2727CD" d="M871.69,277.05c0,12.45-4.28,24.52-12.26,34.02l-1.81,1.8l-13.3,10.55
		c-23.19,18.24-46.28,36.59-69.28,54.93l-31.07,24.7c-18.82,14.92-37.44,30.13-56.16,45.33c-26.51,21.57-53.88,43.81-81.53,65.19
		v0.09c-35.35,30.69-77.16,48.28-117.84,49.42c-8.65,0.28-17.3-0.19-25.56-0.66c-7.03-0.48-14.16-0.95-21.1-0.76
		c-56.07,0.66-104.44,32.21-143.87,93.89c-25.18,39.44-47.23,81.34-65.57,124.68c-43.62,103.1-65.66,212.67-65.66,325.56
		s22.05,222.37,65.66,325.57c14.06,33.26,30.41,65.85,48.56,96.83c14.06,23.95,29.36,47.42,45.71,69.75
		c86.86,127.72,185.97,247.55,294.97,356.45c35.07,35.16,71.75,69.66,108.9,102.54l38.77,34.21l-1.14-0.28
		c8.46,7.22,16.92,14.35,25.47,21.28l5.8,4.85c24.23,21.28,37.92,51.5,37.92,83.24c0,5.99-0.48,12.07-1.43,17.86l-1.43,8.27
		l-1.43,0.29c-10.36,38.87-52.74,79.44-105.48,83.24c-2.66,0.19-5.32,0.29-7.98,0.29c-35.73,0-70.23-17.01-93.79-46.37
		c-15.01-18.82-27.18-32.5-39.34-44.38c-7.22-7.03-14.44-14.16-21.57-21.28c-111.75-111.76-213.24-234.81-301.62-365.58
		c-45.71-67.56-88.47-138.36-127.24-210.2c-17.58-32.5-34.68-66.14-50.94-99.88c-2.28-5.13-4.37-9.98-6.37-14.73
		C26.51,1384.32,0,1253.27,0,1118.24c0-38.2,2.19-76.59,6.37-114.03l7.98-50.17c12.73-77.07,34.59-152.52,65.28-224.93
		c39.25-92.75,91.99-178.66,156.8-255.34c2.85-3.42,5.8-6.84,8.84-10.26l3.42-4.37c2.38-2.85,4.56-5.7,6.75-8.65
		c15.11-20.71,23.85-42.29,27.37-67.94c0.95-6.46,1.62-12.92,2.38-19.48c1.71-15.68,3.52-31.83,7.89-47.7
		c11.4-41.72,40.01-79.45,80.49-106.15l0.29,0.38c27.75-21.28,54.55-42.48,77.45-60.63L629.28,7.83
		c10.55-6.46,22.71-9.02,35.16-7.32c23.19,3.14,41.81,21.38,45.33,44.38c2.28,14.25-1.24,28.31-9.6,39.91l-2.28,2.28l-16.72,13.31
		c-4.37,4.18-9.12,7.7-13.68,11.12c-2.09,1.52-4.18,3.04-6.18,4.66l-74.41,59.01c-10.17,8.07-20.15,16.34-30.12,24.7
		c-17.87,14.92-36.4,30.32-55.88,44.19c-8.65,6.08-11.69,10.45-11.69,16.44c0,3.23,1.05,6.37,2.85,9.03
		c3.42,4.56,8.08,6.94,13.11,6.94c4.56,0,7.7-2.38,13.68-7.32l30.98-24.23c18.15-14.16,36.21-28.32,54.36-42.48
		c35.16-27.65,70.32-55.3,105.48-83.15l15.39-11.97c19.29-9.69,44.28-6.18,60.25,8.84l1.24,1.33l8.55,10.93
		c3.99,6.94,6.46,14.82,6.94,22.9l0.1,1.23c0.1,0.86,0.1,1.62,0.1,2.47c0,12.45-4.37,24.52-12.35,34.02l-1.71,1.8l-37.25,29.55
		c-18.82,14.82-37.35,30.12-55.97,45.33c-33.45,27.46-68.04,55.78-103.39,81.73c-9.31,6.84-12.54,11.5-12.54,17.77
		c0,2.28,0.38,4.46,1.23,6.46c3.71,7.98,7.98,9.03,9.41,9.31c6.27,1.52,15.49-1.61,23.57-7.98c55.31-43.9,110.61-87.9,165.92-131.81
		l7.54-5.78c9.08-6.96,20.01-11.65,31.45-11.7c0.08,0,0.17,0,0.25,0c25.66,0,47.7,18.24,52.46,43.43l0.19,1.23
		C871.5,271.25,871.69,274.1,871.69,277.05z"/>
	<path fill="#2727CD" d="M1001.6,530.04c-320.44,0-580.15,259.81-580.15,580.15c0,338.53,351.03,664.78,506.98,793.02
		c42.48,34.93,103.86,34.93,146.33,0c155.96-128.24,506.98-454.5,506.98-793.02C1581.75,789.85,1321.94,530.04,1001.6,530.04z
		 M1001.6,1443.55c-199.84,0-361.87-162.02-361.87-361.87c0-199.84,162.02-361.87,361.87-361.87s361.87,162.03,361.87,361.87
		C1363.47,1281.53,1201.44,1443.55,1001.6,1443.55z"/>
</g>
</svg>
