<?xml version="1.0" encoding="utf-8"?>
<!-- Generator: Adobe Illustrator 24.0.1, SVG Export Plug-In . SVG Version: 6.00 Build 0)  -->
<svg version="1.1" id="Layer_1" xmlns="http://www.w3.org/2000/svg" xmlns:xlink="http://www.w3.org/1999/xlink" x="0px" y="0px"
	 viewBox="0 0 2000 1570.76" enable-background="new 0 0 2000 1570.76" xml:space="preserve">
<g>
	<g>
		<path fill="#2727CD" d="M253.88,1299.35c0,1.79-1.63,2.68-4.88,2.68c-12.18,0-30.65-1.06-55.42-3.18
			c-24.78-2.11-43.34-3.17-55.68-3.17c-15.59,0-24.69,0.58-27.28,1.71c-6.02,2.76-9.01,10.56-9.01,23.39
			c0,15.43,3.89,24.2,11.69,26.31c3.25,0.82,8.2,1.22,14.86,1.22c11.21,0,27.98-0.6,50.31-1.82c22.33-1.22,39.1-1.82,50.31-1.82
			c5.37,0,8.04,14.29,8.04,42.87c0,24.85-0.89,39.31-2.67,43.37c-1.14,2.92-3.34,4.38-6.59,4.38c2.12,0-3-0.57-15.35-1.71
			c-17.38-1.62-43.7-2.44-78.94-2.44c-11.37,0-17.78,0.08-19.24,0.25c-8.29,1.3-12.43,4.8-12.43,10.48
			c0,23.07,0.97,49.62,2.92,79.67c1.63,27.13,2.44,39.23,2.44,36.31c0,4.21-5.12,6.65-15.36,7.3c2.77-0.16-4.46-0.25-21.68-0.25
			c-30.38,0-49.95-1.06-58.72-3.17c-4.72-1.13-7.06-3.66-7.06-7.55c0-18.03,0.6-45.11,1.82-81.26c1.22-36.14,1.82-63.22,1.82-81.25
			c0-21.44-0.97-48.4-2.92-80.89c-2.93-50.19-4.47-77.15-4.63-80.89l-0.25-2.93c-0.16-4.05,2.28-6.09,7.31-6.09
			c12.02,0,30.16,0.25,54.45,0.73c24.29,0.49,42.51,0.74,54.69,0.74c12.99,0,32.53-0.98,58.6-2.93c26.07-1.95,45.6-2.92,58.6-2.92
			c8.12,0,12.67,3.33,13.65,9.99c0,6.98,0.32,17.46,0.97,31.43c0.32,3.57,1.38,10.47,3.17,20.7
			C253.07,1287.58,253.88,1294.47,253.88,1299.35"/>
		<path fill="#2727CD" d="M633.03,1391.21c0,50.67-16.17,93.15-48.49,127.42c-32.98,34.76-74.72,52.13-125.23,52.13
			c-50.2,0-91.86-17.54-124.99-52.63c-32.49-34.26-48.73-76.58-48.73-126.93c0-50.52,16.24-92.99,48.73-127.43
			c33.13-35.25,74.79-52.87,124.99-52.87c49.86,0,91.44,17.62,124.74,52.87C616.7,1298.54,633.03,1341.01,633.03,1391.21
			 M540.69,1390.71c0-24.36-7.39-45.07-22.17-62.13c-15.43-17.86-35.17-26.8-59.2-26.8c-22.91,0-42.32,9.26-58.24,27.77
			c-15.43,17.87-23.14,38.42-23.14,61.65c0,24.84,7.23,45.56,21.69,62.12c15.26,17.39,35.16,26.07,59.69,26.07
			c22.9,0,42.39-9.18,58.47-27.54C533.05,1434.33,540.69,1413.94,540.69,1390.71"/>
		<path fill="#2727CD" d="M1019.72,1391.21c0,50.67-16.17,93.15-48.49,127.42c-32.98,34.76-74.72,52.13-125.23,52.13
			c-50.2,0-91.86-17.54-124.99-52.63c-32.49-34.26-48.73-76.58-48.73-126.93c0-50.52,16.24-92.99,48.73-127.43
			c33.13-35.25,74.79-52.87,124.99-52.87c49.86,0,91.44,17.62,124.74,52.87C1003.39,1298.54,1019.72,1341.01,1019.72,1391.21
			 M927.38,1390.71c0-24.36-7.39-45.07-22.17-62.13c-15.43-17.86-35.17-26.8-59.2-26.8c-22.91,0-42.32,9.26-58.24,27.77
			c-15.43,17.87-23.14,38.42-23.14,61.65c0,24.84,7.23,45.56,21.69,62.12c15.26,17.39,35.16,26.07,59.69,26.07
			c22.9,0,42.39-9.18,58.47-27.54C919.75,1434.33,927.38,1413.94,927.38,1390.71"/>
		<path fill="#2727CD" d="M1385.95,1389.01c0,47.75-15.36,89.17-46.05,124.25c-27.13,31.35-65.21,47.84-114.27,49.46
			c-9.42,0.32-35.33,0.49-77.72,0.49c-7.97,0-19.94-0.25-35.94-0.74c-16-0.48-27.98-0.73-35.94-0.73c-4.72,0-7.07-1.86-7.07-5.6
			c0-17.87,0.69-44.71,2.07-80.52c1.38-35.81,2.08-62.65,2.08-80.52c0-18.68-0.7-46.66-2.08-83.94
			c-1.38-37.27-2.07-65.17-2.07-83.69c0-3.41,2.35-5.44,7.07-6.09c11.53-1.29,30.46-1.95,56.76-1.95c50.03,0,82.44,0.73,97.22,2.19
			c38.49,3.9,68.62,13.65,90.39,29.24c20.47,14.62,36.63,35.09,48.49,61.39C1380.26,1337.11,1385.95,1362.69,1385.95,1389.01
			 M1292.64,1389.01c0-27.45-8.2-49.87-24.61-67.24c-16.57-18.03-38.5-27.05-65.79-27.05c-25.01,0-37.52,3.34-37.52,9.99
			c0,9.58-0.16,24-0.49,43.25c-0.32,19.25-0.48,33.66-0.48,43.24c0,9.42,0.16,23.6,0.48,42.51c0.33,18.93,0.49,33.18,0.49,42.76
			c0,6.98,12.99,10.48,38.98,10.48c28.1,0,50.2-9.34,66.27-28.02C1285.09,1441.23,1292.64,1417.93,1292.64,1389.01"/>
		<path fill="#2727CD" d="M1659.6,1565.89c-13.98,0-32.16-0.33-54.58-0.97c-29.23-0.65-47.43-1.06-54.57-1.22l-72.85-0.97
			c-7.3,0.16-17.78-0.17-31.43-0.97c-4.72-0.81-7.07-3.34-7.07-7.56c0-17.7,0.28-44.22,0.86-79.55c0.57-35.32,0.85-61.84,0.85-79.55
			c0-18.84-0.58-47.06-1.71-84.66c-1.13-37.61-1.7-65.83-1.7-84.67c0-3.57,2.44-5.36,7.3-5.36c4.88,0,12.14,0.25,21.81,0.73
			c9.66,0.49,16.85,0.73,21.56,0.73c5.36,0,13.31-0.27,23.88-0.85c10.56-0.57,18.51-0.85,23.87-0.85c2.44,0,3.57,1.54,3.41,4.63
			l-0.25,3.17c-1.95,30.54-4.14,76.42-6.58,137.65l-0.24,64.32c0,20.79,0.08,35.98,0.24,45.56c0.16,1.96,0.32,3.9,0.49,5.85
			c0.16,1.96,1.38,3.17,3.66,3.66h6.33c14.62,0,36.5-0.77,65.66-2.32c29.15-1.54,51.05-2.32,65.67-2.32c4.38,0,6.58,1.87,6.58,5.6
			c0,27.77-2.03,51.74-6.08,71.87c-0.82,4.22-2.52,6.74-5.12,7.55C1668.77,1565.73,1665.45,1565.89,1659.6,1565.89"/>
		<path fill="#2727CD" d="M2000,1308.36c0,6.98-1.3,13.08-3.89,18.28c-21.29,42.07-50.28,86.33-86.98,132.79
			c-5.2,6.81-7.8,12.99-7.8,18.51c0,8.61,0.48,21.53,1.46,38.73c0.97,17.23,1.46,30.06,1.46,38.5c0,2.92-0.65,4.72-1.95,5.36
			c-0.33,0.17-2.52,0.58-6.58,1.22c-5.85,0.97-20.47,1.46-43.86,1.46c-23.55,0-38.58-0.49-45.08-1.46
			c-4.54-0.64-6.82-3.01-6.82-7.06c0-8.61,0.74-21.72,2.19-39.35c1.46-17.62,2.2-30.82,2.2-39.59c0-5.2-1.96-10.8-5.86-16.81
			c-19.65-27.77-47.75-70.33-84.29-127.67c-3.74-6.34-5.6-11.54-5.6-15.59c0-9.75-0.49-24.37-1.46-43.86
			c-0.97-19.5-1.46-34.11-1.46-43.86c0-5.37,1.63-8.04,4.88-8.04c9.9,0,24.93,0.41,45.07,1.22c20.14,0.81,35.24,1.22,45.31,1.22
			c3.74,0,5.6,1.22,5.6,3.65c0,8.29-0.36,20.75-1.1,37.4c-0.73,16.65-1.09,29.11-1.09,37.4c0,4.87,7.14,17.05,21.43,36.54
			c11.37,15.27,20.71,27.05,28.02,35.33c6.66-7.8,15.52-19.49,26.56-35.09c13.97-19.5,20.95-31.27,20.95-35.33
			c0-8.12-0.61-20.42-1.82-36.91c-1.22-16.48-1.83-28.78-1.83-36.91c0-3.41,0.74-5.36,2.19-5.85h6.1c9.74,0,24.4-0.44,43.98-1.33
			c19.57-0.9,34.31-1.34,44.22-1.34c3.25,0,4.88,3.5,4.88,10.48c0,8.61,0.16,21.55,0.48,38.86
			C1999.84,1286.56,2000,1299.59,2000,1308.36"/>
	</g>
	<g>
		<path fill="#2727CD" d="M1385.55,474.39c-15.69,134.12-103.78,252.05-174.59,346.84l-144.48,193.41
			c-10.76,14.41-25.22,30.51-43.56,30.51c-1.32,0-2.69-0.09-4.06-0.26c-18.16-2.34-29.67-20.63-31.3-36.68
			c-0.09-0.97-0.18-1.94-0.22-2.91c-13-170.97,166.08-264.35,200.16-280.53c9.66-7.63,18.96-15.39,26.5-23.28
			c80.81-84.78,115.95-190.5,111.24-290.05c-3.66-77.64-37.17-154.04-91.97-209.64c-54.54-55.29-130.37-90.16-208.18-95.67
			l-2.29-0.18c-10.97-0.75-22.31-1.5-32.05-7.58c-0.44-0.31-0.88-0.57-1.28-0.88c-6.08-4.28-10.49-11.07-11.81-18.12
			c-1.19-6.57,1.1-11.82,3.13-16.4c0.31-0.75,0.66-1.54,1.01-2.29c5.86-14.06,25.53-14.72,33.69-14.37
			c105.59,4.59,209.64,54.54,278.46,133.59c26.41,30.33,47.88,65.03,63.8,103.03C1383.39,344.2,1393,410.42,1385.55,474.39z"/>
		<path fill="#2727CD" d="M950.22,107.49c0,4.83-1.66,9.51-4.76,13.2l-0.7,0.7l-5.16,4.09c-9,7.08-17.96,14.2-26.88,21.31
			l-12.06,9.59c-7.3,5.79-14.53,11.69-21.79,17.59c-10.29,8.37-20.91,17-31.64,25.29v0.04c-13.72,11.91-29.94,18.73-45.72,19.17
			c-3.36,0.11-6.71-0.07-9.92-0.26c-2.73-0.19-5.49-0.37-8.19-0.3c-21.75,0.26-40.52,12.5-55.82,36.43
			c-9.77,15.3-18.32,31.56-25.44,48.38c-16.92,40-25.48,82.52-25.48,126.32s8.55,86.28,25.48,126.32
			c5.46,12.9,11.8,25.55,18.84,37.57c5.46,9.29,11.39,18.4,17.73,27.06c33.7,49.55,72.16,96.05,114.45,138.3
			c13.61,13.64,27.84,27.03,42.25,39.78l15.04,13.27l-0.44-0.11c3.28,2.8,6.56,5.57,9.88,8.26l2.25,1.88
			c9.4,8.26,14.71,19.98,14.71,32.3c0,2.32-0.18,4.68-0.55,6.93l-0.55,3.21l-0.55,0.11c-4.02,15.08-20.46,30.82-40.93,32.3
			c-1.03,0.07-2.06,0.11-3.1,0.11c-13.86,0-27.25-6.6-36.39-17.99c-5.83-7.3-10.55-12.61-15.26-17.22c-2.8-2.73-5.6-5.49-8.37-8.26
			c-43.36-43.36-82.74-91.11-117.03-141.84c-17.73-26.21-34.33-53.68-49.37-81.56c-6.82-12.61-13.46-25.66-19.76-38.75
			c-0.88-1.99-1.7-3.87-2.47-5.72C622.29,537.12,612,486.27,612,433.88c0-14.82,0.85-29.72,2.47-44.25l3.1-19.47
			c4.94-29.9,13.42-59.18,25.33-87.27c15.23-35.99,35.69-69.32,60.84-99.07c1.11-1.33,2.25-2.66,3.43-3.98l1.33-1.7
			c0.92-1.11,1.77-2.21,2.62-3.36c5.86-8.04,9.25-16.41,10.62-26.36c0.37-2.51,0.63-5.01,0.92-7.56c0.66-6.08,1.36-12.35,3.06-18.51
			c4.42-16.19,15.52-30.83,31.23-41.19l0.11,0.15c10.77-8.26,21.16-16.48,30.05-23.52l69.06-54.75c4.09-2.51,8.81-3.5,13.64-2.84
			c9,1.22,16.22,8.3,17.59,17.22c0.89,5.53-0.48,10.99-3.72,15.48l-0.89,0.88l-6.49,5.16c-1.7,1.62-3.54,2.99-5.31,4.31
			c-0.81,0.59-1.62,1.18-2.4,1.81l-28.87,22.9c-3.95,3.13-7.82,6.34-11.69,9.59c-6.93,5.79-14.12,11.76-21.68,17.15
			c-3.36,2.36-4.54,4.05-4.54,6.38c0,1.25,0.41,2.47,1.11,3.5c1.33,1.77,3.13,2.69,5.09,2.69c1.77,0,2.99-0.92,5.31-2.84l12.02-9.4
			c7.04-5.49,14.05-10.99,21.09-16.48c13.64-10.73,27.28-21.46,40.93-32.26l5.97-4.64c7.48-3.76,17.18-2.4,23.38,3.43l0.48,0.51
			l3.32,4.24c1.55,2.69,2.51,5.75,2.69,8.89l0.04,0.48c0.04,0.33,0.04,0.63,0.04,0.96c0,4.83-1.7,9.51-4.79,13.2l-0.66,0.7
			l-14.45,11.47c-7.3,5.75-14.49,11.69-21.72,17.59c-12.98,10.66-26.4,21.64-40.12,31.71c-3.61,2.65-4.87,4.46-4.87,6.9
			c0,0.88,0.15,1.73,0.48,2.51c1.44,3.1,3.1,3.5,3.65,3.61c2.43,0.59,6.01-0.63,9.14-3.1c21.46-17.03,42.92-34.11,64.38-51.14
			l2.93-2.24c3.52-2.7,7.77-4.52,12.2-4.54c0.03,0,0.06,0,0.1,0c9.96,0,18.51,7.08,20.35,16.85l0.07,0.48
			C950.14,105.25,950.22,106.35,950.22,107.49z"/>
		<path fill="#2727CD" d="M1000.62,205.66c-124.33,0-225.1,100.8-225.1,225.1c0,131.35,136.2,257.93,196.71,307.69
			c16.48,13.55,40.3,13.55,56.78,0c60.51-49.76,196.71-176.34,196.71-307.69C1225.72,306.46,1124.91,205.66,1000.62,205.66z
			 M1000.62,560.1c-77.54,0-140.4-62.86-140.4-140.4c0-77.54,62.86-140.4,140.4-140.4s140.4,62.87,140.4,140.4
			C1141.02,497.23,1078.16,560.1,1000.62,560.1z"/>
	</g>
</g>
</svg>
