<?xml version="1.0" encoding="utf-8"?>
<!-- Generator: Adobe Illustrator 24.0.1, SVG Export Plug-In . SVG Version: 6.00 Build 0)  -->
<svg version="1.1" id="Layer_1" xmlns="http://www.w3.org/2000/svg" xmlns:xlink="http://www.w3.org/1999/xlink" x="0px" y="0px"
	 viewBox="0 0 2000 359.85" enable-background="new 0 0 2000 359.85" xml:space="preserve">
<g>
	<path fill="#2727CD" d="M253.88,88.44c0,1.79-1.63,2.68-4.88,2.68c-12.18,0-30.65-1.06-55.42-3.18
		c-24.78-2.11-43.34-3.17-55.68-3.17c-15.59,0-24.69,0.58-27.28,1.71c-6.02,2.76-9.01,10.56-9.01,23.39
		c0,15.43,3.89,24.2,11.69,26.31c3.25,0.82,8.2,1.22,14.86,1.22c11.21,0,27.98-0.6,50.31-1.82c22.33-1.22,39.1-1.82,50.31-1.82
		c5.37,0,8.04,14.29,8.04,42.87c0,24.85-0.89,39.31-2.67,43.37c-1.14,2.92-3.34,4.38-6.59,4.38c2.12,0-3-0.57-15.35-1.71
		c-17.38-1.62-43.7-2.44-78.94-2.44c-11.37,0-17.78,0.08-19.24,0.25c-8.29,1.3-12.43,4.8-12.43,10.48c0,23.07,0.97,49.62,2.92,79.67
		c1.63,27.13,2.44,39.23,2.44,36.31c0,4.21-5.12,6.65-15.36,7.3c2.77-0.16-4.46-0.25-21.68-0.25c-30.38,0-49.95-1.06-58.72-3.17
		c-4.72-1.13-7.06-3.66-7.06-7.55c0-18.03,0.6-45.11,1.82-81.26C7.2,225.9,7.8,198.82,7.8,180.79c0-21.44-0.97-48.4-2.92-80.89
		C1.95,49.71,0.41,22.75,0.25,19.01l-0.25-2.93c-0.16-4.05,2.28-6.09,7.31-6.09c12.02,0,30.16,0.25,54.45,0.73
		c24.29,0.49,42.51,0.74,54.69,0.74c12.99,0,32.53-0.98,58.6-2.93c26.07-1.95,45.6-2.92,58.6-2.92c8.12,0,12.67,3.33,13.65,9.99
		c0,6.98,0.32,17.46,0.97,31.43c0.32,3.57,1.38,10.47,3.17,20.7C253.07,76.67,253.88,83.57,253.88,88.44"/>
	<path fill="#2727CD" d="M633.03,180.3c0,50.67-16.17,93.15-48.49,127.42c-32.98,34.76-74.72,52.13-125.23,52.13
		c-50.2,0-91.86-17.54-124.99-52.63c-32.49-34.26-48.73-76.58-48.73-126.93c0-50.52,16.24-92.99,48.73-127.43
		C367.45,17.62,409.12,0,459.31,0c49.86,0,91.44,17.62,124.74,52.87C616.7,87.64,633.03,130.1,633.03,180.3 M540.69,179.81
		c0-24.36-7.39-45.07-22.17-62.13c-15.43-17.86-35.17-26.8-59.2-26.8c-22.91,0-42.32,9.26-58.24,27.77
		c-15.43,17.87-23.14,38.42-23.14,61.65c0,24.84,7.23,45.56,21.69,62.12c15.26,17.39,35.16,26.07,59.69,26.07
		c22.9,0,42.39-9.18,58.47-27.54C533.05,223.42,540.69,203.04,540.69,179.81"/>
	<path fill="#2727CD" d="M1019.72,180.3c0,50.67-16.17,93.15-48.49,127.42c-32.98,34.76-74.72,52.13-125.23,52.13
		c-50.2,0-91.86-17.54-124.99-52.63c-32.49-34.26-48.73-76.58-48.73-126.93c0-50.52,16.24-92.99,48.73-127.43
		C754.15,17.62,795.81,0,846.01,0c49.86,0,91.44,17.62,124.74,52.87C1003.39,87.64,1019.72,130.1,1019.72,180.3 M927.38,179.81
		c0-24.36-7.39-45.07-22.17-62.13c-15.43-17.86-35.17-26.8-59.2-26.8c-22.91,0-42.32,9.26-58.24,27.77
		c-15.43,17.87-23.14,38.42-23.14,61.65c0,24.84,7.23,45.56,21.69,62.12c15.26,17.39,35.16,26.07,59.69,26.07
		c22.9,0,42.39-9.18,58.47-27.54C919.75,223.42,927.38,203.04,927.38,179.81"/>
	<path fill="#2727CD" d="M1385.95,178.1c0,47.75-15.36,89.17-46.05,124.25c-27.13,31.35-65.21,47.84-114.27,49.46
		c-9.42,0.32-35.33,0.49-77.72,0.49c-7.97,0-19.94-0.25-35.94-0.74c-16-0.48-27.98-0.73-35.94-0.73c-4.72,0-7.07-1.86-7.07-5.6
		c0-17.87,0.69-44.71,2.07-80.52c1.38-35.81,2.08-62.65,2.08-80.52c0-18.68-0.7-46.66-2.08-83.94c-1.38-37.27-2.07-65.17-2.07-83.69
		c0-3.41,2.35-5.44,7.07-6.09c11.53-1.29,30.46-1.95,56.76-1.95c50.03,0,82.44,0.73,97.22,2.19c38.49,3.9,68.62,13.65,90.39,29.24
		c20.47,14.62,36.63,35.09,48.49,61.39C1380.26,126.21,1385.95,151.79,1385.95,178.1 M1292.64,178.1c0-27.45-8.2-49.87-24.61-67.24
		c-16.57-18.03-38.5-27.05-65.79-27.05c-25.01,0-37.52,3.34-37.52,9.99c0,9.58-0.16,24-0.49,43.25
		c-0.32,19.25-0.48,33.66-0.48,43.24c0,9.42,0.16,23.6,0.48,42.51c0.33,18.93,0.49,33.18,0.49,42.76c0,6.98,12.99,10.48,38.98,10.48
		c28.1,0,50.2-9.34,66.27-28.02C1285.09,230.32,1292.64,207.02,1292.64,178.1"/>
	<path fill="#2727CD" d="M1659.6,354.99c-13.98,0-32.16-0.33-54.58-0.97c-29.23-0.65-47.43-1.06-54.57-1.22l-72.85-0.97
		c-7.3,0.16-17.78-0.17-31.43-0.97c-4.72-0.81-7.07-3.34-7.07-7.56c0-17.7,0.28-44.22,0.86-79.55c0.57-35.32,0.85-61.84,0.85-79.55
		c0-18.84-0.58-47.06-1.71-84.66c-1.13-37.61-1.7-65.83-1.7-84.67c0-3.57,2.44-5.36,7.3-5.36c4.88,0,12.14,0.25,21.81,0.73
		c9.66,0.49,16.85,0.73,21.56,0.73c5.36,0,13.31-0.27,23.88-0.85c10.56-0.57,18.51-0.85,23.87-0.85c2.44,0,3.57,1.54,3.41,4.63
		l-0.25,3.17c-1.95,30.54-4.14,76.42-6.58,137.65l-0.24,64.32c0,20.79,0.08,35.98,0.24,45.56c0.16,1.96,0.32,3.9,0.49,5.85
		c0.16,1.96,1.38,3.17,3.66,3.66h6.33c14.62,0,36.5-0.77,65.66-2.32c29.15-1.54,51.05-2.32,65.67-2.32c4.38,0,6.58,1.87,6.58,5.6
		c0,27.77-2.03,51.74-6.08,71.87c-0.82,4.22-2.52,6.74-5.12,7.55C1668.77,354.83,1665.45,354.99,1659.6,354.99"/>
	<path fill="#2727CD" d="M2000,97.46c0,6.98-1.3,13.08-3.89,18.28c-21.29,42.07-50.28,86.33-86.98,132.79
		c-5.2,6.81-7.8,12.99-7.8,18.51c0,8.61,0.48,21.53,1.46,38.73c0.97,17.23,1.46,30.06,1.46,38.5c0,2.92-0.65,4.72-1.95,5.36
		c-0.33,0.17-2.52,0.58-6.58,1.22c-5.85,0.97-20.47,1.46-43.86,1.46c-23.55,0-38.58-0.49-45.08-1.46c-4.54-0.64-6.82-3-6.82-7.06
		c0-8.61,0.74-21.73,2.19-39.35c1.46-17.62,2.2-30.82,2.2-39.59c0-5.2-1.96-10.8-5.86-16.81c-19.65-27.77-47.75-70.33-84.29-127.67
		c-3.74-6.34-5.6-11.54-5.6-15.59c0-9.75-0.49-24.37-1.46-43.86c-0.97-19.5-1.46-34.11-1.46-43.86c0-5.37,1.63-8.04,4.88-8.04
		c9.9,0,24.93,0.41,45.07,1.22c20.14,0.81,35.24,1.22,45.31,1.22c3.74,0,5.6,1.22,5.6,3.65c0,8.29-0.36,20.75-1.1,37.4
		c-0.73,16.65-1.09,29.11-1.09,37.4c0,4.87,7.14,17.05,21.43,36.54c11.37,15.27,20.71,27.05,28.02,35.33
		c6.66-7.8,15.52-19.49,26.56-35.09c13.97-19.5,20.95-31.27,20.95-35.33c0-8.12-0.61-20.42-1.82-36.91
		c-1.22-16.48-1.83-28.78-1.83-36.91c0-3.41,0.74-5.36,2.19-5.85h6.1c9.74,0,24.4-0.44,43.98-1.33c19.57-0.9,34.31-1.34,44.22-1.34
		c3.25,0,4.88,3.5,4.88,10.48c0,8.61,0.16,21.55,0.48,38.86C1999.84,75.66,2000,88.69,2000,97.46"/>
</g>
</svg>
